<svg width="148" height="45" viewBox="0 0 148 45" fill="none" xmlns="http://www.w3.org/2000/svg">
<mask id="mask0_1605_12978" style="mask-type:luminance" maskUnits="userSpaceOnUse" x="0" y="0" width="148" height="45">
<path d="M147.208 0.439941H0.00286865V44.2883H147.208V0.439941Z" fill="white"/>
</mask>
<g mask="url(#mask0_1605_12978)">
<path d="M112.76 9.97079L113.585 8.94826C114.247 9.61667 115.13 9.99507 116.052 10.0054C116.899 10.0054 117.436 9.59849 117.436 8.98289V8.95952C117.436 8.37856 117.123 8.06427 115.673 7.71621C114.01 7.29715 113.072 6.78546 113.072 5.28673V5.26249C113.072 3.8668 114.188 2.90228 115.74 2.90228C116.772 2.88069 117.777 3.24362 118.574 3.92567L117.838 5.00707C117.238 4.49407 116.493 4.20025 115.717 4.1707C114.914 4.1707 114.446 4.6036 114.446 5.13521V5.15859C114.446 5.78544 114.803 6.0651 116.298 6.4374C117.949 6.85559 118.809 7.47205 118.809 8.82099V8.84436C118.809 10.3673 117.66 11.2747 116.018 11.2747C114.815 11.2815 113.652 10.8181 112.76 9.97598" fill="#E6EDED"/>
<path d="M116.018 11.3701C114.792 11.3747 113.607 10.9012 112.699 10.0428L112.63 9.98051L113.575 8.81079L113.646 8.874C114.288 9.53261 115.151 9.90522 116.052 9.91298C116.835 9.91298 117.343 9.54933 117.343 8.98742V8.96404C117.343 8.46101 117.093 8.16057 115.652 7.81424C113.959 7.38826 112.979 6.83847 112.979 5.29039V5.26355C112.979 3.81591 114.114 2.80637 115.74 2.80637C116.792 2.78723 117.817 3.15719 118.633 3.85054L118.7 3.90682L117.862 5.14407L117.786 5.08433C117.203 4.58197 116.477 4.29432 115.721 4.26613C115.016 4.26613 114.542 4.61246 114.542 5.13195V5.15533C114.542 5.70252 114.811 5.964 116.323 6.33976C118.158 6.80557 118.906 7.52246 118.906 8.81772V8.8411C118.906 10.3762 117.774 11.3684 116.023 11.3684M112.891 9.95973C113.757 10.7464 114.87 11.1773 116.019 11.1719C117.658 11.1719 118.716 10.2567 118.716 8.83937V8.81599C118.716 7.61424 118.032 6.9718 116.277 6.52678C114.767 6.15101 114.353 5.85577 114.353 5.15359V5.13455C114.353 4.50943 114.915 4.07306 115.719 4.07306C116.483 4.09722 117.219 4.37681 117.819 4.87047L118.449 3.94492C117.68 3.31107 116.722 2.97697 115.742 3.00031C114.226 3.00031 113.165 3.93106 113.165 5.26442V5.28433C113.165 6.71206 114.053 7.20731 115.694 7.62203C117.1 7.96057 117.529 8.27312 117.529 8.96058V8.98396C117.529 9.66449 116.947 10.1035 116.052 10.1035C115.14 10.0963 114.263 9.73296 113.596 9.08526L112.891 9.95973Z" fill="#E6EDED"/>
<path d="M122.18 4.34807H119.703V3.01904H126.041V4.34807H123.562V11.1603H122.178L122.18 4.34807Z" fill="#E6EDED"/>
<path d="M123.656 11.2532H122.086V4.441H119.608V2.92236H126.133V4.441H123.656L123.656 11.2532ZM122.272 11.0602H123.469V4.24619H125.946V3.11631H119.795V4.24619H122.272L122.272 11.0602Z" fill="#E6EDED"/>
<path d="M84.7348 18.3495V18.3261C84.7268 17.7722 84.8254 17.2222 85.0249 16.7086C85.2244 16.195 85.5207 15.7283 85.8963 15.3361C86.2719 14.9438 86.7191 14.6339 87.2116 14.4247C87.7041 14.2156 88.2319 14.1114 88.7637 14.1183C89.8645 14.0637 90.9421 14.4599 91.766 15.2222L90.8949 16.3036C90.3057 15.7226 89.5191 15.409 88.708 15.4317C88.3604 15.4463 88.019 15.5322 87.7034 15.6846C87.3878 15.837 87.1042 16.0528 86.8689 16.3196C86.6336 16.5864 86.4512 16.8991 86.3321 17.2395C86.2131 17.58 86.1598 17.9416 86.1753 18.3036V18.3261C86.1501 18.7027 86.2004 19.0806 86.3232 19.4358C86.4459 19.791 86.6383 20.1157 86.8882 20.3891C87.138 20.6625 87.4398 20.8788 87.7743 21.024C88.1088 21.1692 88.4687 21.2403 88.831 21.2327C89.5065 21.2401 90.1668 21.0243 90.7171 20.6162V19.0941H88.7221V17.8516H92.047V21.269C91.1428 22.0858 89.9863 22.5358 88.7895 22.5366C88.2537 22.5622 87.7186 22.4718 87.2181 22.271C86.7176 22.0703 86.2625 21.7635 85.8817 21.3701C85.5008 20.9767 85.2025 20.5053 85.0055 19.9857C84.8085 19.4661 84.7172 18.9095 84.7373 18.3512" fill="#E6EDED"/>
<path d="M88.7879 22.6309C88.2391 22.6599 87.6905 22.5692 87.1773 22.3647C86.6641 22.1602 86.1975 21.8464 85.8073 21.4434C85.4172 21.0403 85.112 20.5569 84.9115 20.024C84.711 19.4911 84.6194 18.9205 84.6426 18.3486V18.3252C84.6361 17.759 84.7381 17.197 84.9428 16.6724C85.1475 16.1478 85.4507 15.671 85.8347 15.27C86.2186 14.8691 86.6755 14.552 87.1786 14.3374C87.6818 14.1228 88.221 14.0151 88.7646 14.0204C89.8873 13.9665 90.9859 14.3703 91.8276 15.146L91.8974 15.2083L90.9075 16.4378L90.836 16.3745C90.5531 16.0934 90.2194 15.8735 89.8542 15.7277C89.4891 15.5819 89.0998 15.5131 88.7089 15.5252C88.0334 15.558 87.3977 15.8677 86.9404 16.3867C86.4831 16.9056 86.2413 17.5919 86.2677 18.2958V18.3192C86.2427 18.683 86.2909 19.0482 86.4091 19.3915C86.5274 19.7349 86.713 20.0487 86.9542 20.3131C87.1955 20.5775 87.487 20.7866 87.8101 20.927C88.1333 21.0675 88.481 21.1362 88.8311 21.1287C89.4704 21.1342 90.096 20.9361 90.624 20.5608V19.1841H88.6291V17.7495H92.141V21.3097L92.1077 21.3383C91.1867 22.1707 90.0081 22.6288 88.7887 22.6283M88.7663 14.2117C88.2471 14.2066 87.7323 14.3096 87.2518 14.5145C86.7714 14.7194 86.3351 15.0222 85.9685 15.4051C85.6019 15.788 85.3124 16.2433 85.117 16.7443C84.9216 17.2453 84.8242 17.7819 84.8305 18.3226V18.346C84.8086 18.892 84.8962 19.4367 85.0878 19.9454C85.2794 20.454 85.5708 20.9155 85.9433 21.3002C86.3158 21.685 86.7612 21.9846 87.2512 22.1799C87.7411 22.3751 88.2648 22.4618 88.7887 22.4344C89.9487 22.4357 91.0711 22.0059 91.954 21.2222V17.946H88.8137V18.9962H90.8086V20.6647L90.7703 20.6932C90.2033 21.1125 89.5239 21.3348 88.8286 21.3287C88.4539 21.3373 88.0816 21.2643 87.7355 21.1146C87.3894 20.9648 87.077 20.7416 86.8183 20.459C86.5597 20.1765 86.3604 19.8409 86.2333 19.4736C86.1061 19.1064 86.0538 18.7156 86.0798 18.3261V18.3027C86.0521 17.5467 86.3128 16.8101 86.805 16.2538C87.2972 15.6974 87.9808 15.3667 88.7064 15.3338C89.5076 15.3102 90.2867 15.6084 90.8825 16.1668L91.6306 15.2343C90.8323 14.5282 89.8066 14.1637 88.7605 14.2143" fill="#E6EDED"/>
<path d="M93.8324 14.2579H97.3135C98.1386 14.2105 98.9485 14.5028 99.5686 15.0718C99.9991 15.5443 100.232 16.1755 100.216 16.8268V16.8502C100.233 17.4237 100.055 17.9851 99.7142 18.4358C99.3733 18.8865 98.8909 19.1978 98.3517 19.3151L100.46 22.3957H98.8421L96.922 19.5584H95.2039V22.3957H93.8324V14.2579ZM97.2138 18.2909C98.1954 18.2909 98.8213 17.7567 98.8213 16.9307V16.9082C98.8213 16.0363 98.2179 15.5592 97.203 15.5592H95.2081V18.2909H97.2138Z" fill="#E6EDED"/>
<path d="M100.641 22.4906H98.7939L96.8746 19.6542H95.2954V22.4906H93.7352V14.1597H97.3094C98.1586 14.1118 98.9917 14.4141 99.6285 15.0013C99.8509 15.2442 100.025 15.5305 100.141 15.8437C100.257 16.1569 100.313 16.4909 100.304 16.8264V16.8498C100.323 17.4208 100.155 17.9815 99.8264 18.4393C99.4982 18.8971 99.0299 19.2245 98.4988 19.3676L100.641 22.4906ZM98.8903 22.2975H100.28L98.2021 19.2577L98.3293 19.2204C98.8488 19.1086 99.3137 18.8094 99.6423 18.3757C99.9709 17.9419 100.142 17.4012 100.126 16.849V16.8256C100.142 16.1994 99.9189 15.5921 99.5054 15.1372C98.9032 14.587 98.1175 14.3053 97.3177 14.3528H93.9288V22.2967H95.115V19.4611H96.9752L98.8903 22.2975ZM97.213 18.3875H95.1108V15.4619H97.2022C98.2894 15.4619 98.9136 15.9892 98.9136 16.907V16.9303C98.9136 17.8152 98.2487 18.3875 97.213 18.3875ZM95.3012 18.1936H97.213C98.1472 18.1936 98.7274 17.7087 98.7274 16.9303V16.907C98.7274 16.1009 98.1855 15.6559 97.203 15.6559H95.2979L95.3012 18.1936Z" fill="#E6EDED"/>
<path d="M101.55 18.3495V18.3262C101.569 17.2125 102.006 16.1507 102.768 15.3689C103.529 14.5871 104.555 14.1475 105.624 14.1445C106.694 14.1416 107.721 14.5755 108.487 15.3531C109.253 16.1307 109.695 17.1901 109.719 18.3037V18.3262C109.701 19.4399 109.264 20.5017 108.502 21.2836C107.741 22.0655 106.715 22.5052 105.646 22.5083C104.576 22.5113 103.549 22.0775 102.783 21.3C102.017 20.5224 101.575 19.4632 101.55 18.3495ZM108.283 18.3495V18.3262C108.297 17.953 108.238 17.5808 108.111 17.2316C107.984 16.8824 107.791 16.5633 107.543 16.2934C107.296 16.0234 106.999 15.808 106.669 15.66C106.34 15.512 105.986 15.4344 105.627 15.4318C105.271 15.4322 104.919 15.5078 104.591 15.6539C104.264 15.8 103.968 16.0137 103.722 16.282C103.476 16.5503 103.284 16.8678 103.159 17.2152C103.034 17.5627 102.977 17.9329 102.993 18.3037V18.3262C102.979 18.6994 103.038 19.0717 103.165 19.421C103.292 19.7703 103.485 20.0895 103.733 20.3595C103.98 20.6296 104.278 20.8451 104.607 20.9931C104.936 21.1412 105.29 21.2188 105.649 21.2215C106.005 21.221 106.358 21.1454 106.685 20.9993C107.013 20.8532 107.308 20.6395 107.555 20.3712C107.801 20.1029 107.992 19.7854 108.117 19.438C108.243 19.0905 108.299 18.7203 108.283 18.3495Z" fill="#E6EDED"/>
<path d="M105.628 22.63C105.081 22.6468 104.537 22.5479 104.028 22.3394C103.518 22.1309 103.055 21.817 102.666 21.4168C102.276 21.0166 101.969 20.5382 101.762 20.0107C101.555 19.4832 101.452 18.9175 101.461 18.3476V18.3243C101.459 17.7534 101.566 17.1878 101.777 16.6607C101.987 16.1336 102.297 15.6556 102.687 15.2546C103.077 14.8536 103.54 14.5379 104.049 14.3258C104.557 14.1137 105.102 14.0095 105.65 14.0194C106.197 14.0025 106.741 14.1013 107.251 14.3097C107.76 14.5182 108.223 14.832 108.613 15.2323C109.002 15.6325 109.31 16.1109 109.517 16.6385C109.724 17.1661 109.826 17.7319 109.817 18.3018V18.3243C109.82 18.8953 109.713 19.461 109.502 19.9883C109.292 20.5156 108.982 20.9938 108.592 21.3948C108.202 21.7959 107.739 22.1117 107.23 22.3238C106.721 22.5359 106.176 22.64 105.628 22.63ZM105.65 14.2134C105.125 14.1972 104.602 14.292 104.113 14.4921C103.624 14.6922 103.179 14.9935 102.805 15.3777C102.431 15.7619 102.135 16.2211 101.937 16.7275C101.738 17.2339 101.639 17.7771 101.647 18.3243V18.3476C101.65 19.4499 102.074 20.5057 102.824 21.2829C103.574 22.0601 104.59 22.495 105.649 22.4919C106.707 22.4888 107.72 22.0479 108.466 21.2664C109.213 20.4848 109.63 19.4265 109.627 18.3243V18.3018C109.635 17.7576 109.538 17.2173 109.34 16.7136C109.142 16.2099 108.848 15.7532 108.476 15.3711C108.104 14.9889 107.661 14.6893 107.175 14.4904C106.689 14.2914 106.169 14.1972 105.646 14.2134M105.646 21.3131C105.276 21.3085 104.911 21.2271 104.571 21.0735C104.231 20.9199 103.924 20.6973 103.668 20.4186C103.412 20.1399 103.212 19.8108 103.08 19.4506C102.948 19.0904 102.886 18.7063 102.898 18.3208V18.2983C102.881 17.9147 102.94 17.5316 103.069 17.1722C103.199 16.8128 103.397 16.4845 103.652 16.2071C103.907 15.9297 104.213 15.709 104.552 15.5583C104.891 15.4076 105.256 15.33 105.625 15.3303C105.995 15.3347 106.361 15.416 106.7 15.5694C107.04 15.7229 107.347 15.9454 107.603 16.2239C107.859 16.5024 108.059 16.8313 108.191 17.1914C108.323 17.5515 108.385 17.9354 108.374 18.3208V18.3442C108.39 18.7279 108.331 19.111 108.202 19.4705C108.072 19.8299 107.874 20.1583 107.619 20.4358C107.364 20.7132 107.057 20.934 106.718 21.0848C106.379 21.2355 106.015 21.3132 105.646 21.3131ZM105.624 15.5242C105.28 15.5248 104.94 15.5978 104.624 15.7388C104.309 15.8799 104.023 16.086 103.786 16.3448C103.549 16.6037 103.364 16.9099 103.243 17.245C103.122 17.5801 103.068 17.9372 103.083 18.2948V18.3173C103.064 18.6777 103.115 19.0383 103.234 19.3773C103.353 19.7163 103.537 20.0266 103.774 20.2893C104.012 20.552 104.298 20.7616 104.616 20.9054C104.934 21.0492 105.277 21.1242 105.623 21.1257C105.969 21.1273 106.313 21.0555 106.632 20.9146C106.951 20.7737 107.239 20.5668 107.479 20.3063C107.718 20.0458 107.905 19.7372 108.026 19.3993C108.148 19.0614 108.203 18.7012 108.187 18.3407V18.3173C108.202 17.9564 108.148 17.5958 108.026 17.2574C107.905 16.919 107.719 16.6098 107.479 16.3483C107.24 16.0869 106.952 15.8787 106.633 15.7364C106.314 15.594 105.971 15.5203 105.624 15.5199" fill="#E6EDED"/>
<path d="M111.264 18.9418V14.2568H112.636V18.8837C112.636 20.3946 113.384 21.2085 114.611 21.2085C115.838 21.2085 116.576 20.4413 116.576 18.9418V14.2568H117.949V18.8751C117.949 21.3046 116.633 22.5262 114.59 22.5262C112.548 22.5262 111.265 21.3054 111.265 18.9452" fill="#E6EDED"/>
<path d="M114.59 22.6197C112.417 22.6197 111.171 21.2794 111.171 18.9425V14.1606H112.729V18.8837C112.729 20.3001 113.415 21.1123 114.612 21.1123C115.809 21.1123 116.484 20.3417 116.484 18.9425V14.1606H118.042V18.8715C118.042 21.2534 116.784 22.6197 114.59 22.6197ZM111.357 14.3572V18.946C111.357 21.159 112.535 22.4292 114.589 22.4292C116.668 22.4292 117.855 21.1305 117.855 18.8793V14.3572H116.668V18.946C116.668 20.4482 115.92 21.3088 114.61 21.3088C113.3 21.3088 112.541 20.4265 112.541 18.8845V14.3572H111.357Z" fill="#E6EDED"/>
<path d="M119.835 14.2568H122.915C124.734 14.2568 125.883 15.3382 125.883 16.9772V17.0006C125.883 18.8257 124.478 19.779 122.759 19.779H121.208V22.3946H119.835V14.2568ZM122.804 18.4881C123.842 18.4881 124.489 17.882 124.489 17.0344V17.011C124.489 16.0586 123.83 15.5573 122.804 15.5573H121.208V18.4872L122.804 18.4881Z" fill="#E6EDED"/>
<path d="M121.302 22.491H119.742V14.1602H122.917C124.776 14.1602 125.978 15.2658 125.978 16.9775V17C125.978 18.7464 124.714 19.8754 122.759 19.8754H121.302V22.491ZM119.929 22.2979H121.115V19.6823H122.759C124.601 19.6823 125.791 18.6286 125.791 16.9983V16.9758C125.791 15.3818 124.662 14.3515 122.916 14.3515H119.929V22.2979ZM122.804 18.5853H121.115V15.4623H122.804C123.917 15.4623 124.582 16.0416 124.582 17.0121V17.0355C124.582 17.9619 123.867 18.5853 122.804 18.5853ZM121.302 18.3914H122.804C123.757 18.3914 124.396 17.8459 124.396 17.0355V17.0121C124.396 16.1463 123.814 15.6554 122.804 15.6554H121.302V18.3914Z" fill="#E6EDED"/>
<path d="M84.7349 29.5873V29.564C84.7534 28.4502 85.1905 27.3885 85.9522 26.6067C86.7139 25.8249 87.7395 25.3853 88.8088 25.3823C89.8782 25.3794 90.9061 25.8133 91.6717 26.5909C92.4374 27.3685 92.8798 28.4278 92.904 29.5414V29.564C92.8856 30.6777 92.4486 31.7395 91.687 32.5214C90.9254 33.3033 89.8998 33.743 88.8304 33.7461C87.7611 33.7491 86.7332 33.3153 85.9674 32.5378C85.2017 31.7602 84.7592 30.7009 84.7349 29.5873ZM91.4677 29.5873V29.564C91.4813 29.1905 91.4227 28.8179 91.2953 28.4685C91.168 28.1191 90.9745 27.7999 90.7263 27.5299C90.4782 27.2599 90.1805 27.0446 89.8509 26.8968C89.5214 26.749 89.1666 26.6717 88.8078 26.6695C88.4516 26.67 88.0991 26.7456 87.7716 26.8917C87.4442 27.0378 87.1485 27.2515 86.9025 27.5199C86.6564 27.7882 86.4651 28.1057 86.34 28.4531C86.2149 28.8005 86.1586 29.1707 86.1745 29.5414V29.564C86.1607 29.9372 86.219 30.3094 86.346 30.6587C86.4731 31.0079 86.6662 31.327 86.9139 31.597C87.1616 31.867 87.4589 32.0824 87.7881 32.2304C88.1173 32.3783 88.4717 32.4559 88.8302 32.4584C89.1865 32.458 89.539 32.3826 89.8665 32.2366C90.1939 32.0905 90.4897 31.8769 90.7358 31.6087C90.9819 31.3404 91.1734 31.023 91.2986 30.6756C91.4238 30.3282 91.4802 29.958 91.4644 29.5873" fill="#E6EDED"/>
<path d="M88.8086 33.8682C88.2618 33.8849 87.7174 33.786 87.2082 33.5774C86.6991 33.3688 86.2359 33.055 85.8464 32.6548C85.457 32.2545 85.1495 31.7763 84.9424 31.2488C84.7354 30.7213 84.6331 30.1556 84.6417 29.5859V29.5625C84.6396 28.9916 84.7468 28.4259 84.9573 27.8987C85.1678 27.3716 85.4772 26.8935 85.8674 26.4925C86.2576 26.0916 86.7207 25.7758 87.2297 25.5637C87.7386 25.3517 88.283 25.2476 88.831 25.2577C89.3779 25.241 89.9223 25.3399 90.4314 25.5485C90.9405 25.757 91.4038 26.0709 91.7932 26.4711C92.1826 26.8713 92.4902 27.3496 92.6972 27.8771C92.9043 28.4045 93.0066 28.9702 92.9979 29.54V29.5625C93.0001 30.1335 92.8928 30.6992 92.6824 31.2264C92.4719 31.7536 92.1625 32.2317 91.7723 32.6328C91.3821 33.0338 90.919 33.3497 90.4101 33.5618C89.9011 33.7739 89.3567 33.8781 88.8086 33.8682ZM88.831 25.4516C88.3059 25.4354 87.7831 25.5302 87.2942 25.7303C86.8053 25.9304 86.3603 26.2317 85.9863 26.6159C85.6122 27.0001 85.3168 27.4593 85.1178 27.9657C84.9189 28.4722 84.8206 29.0154 84.8288 29.5625V29.5859C84.8317 30.6881 85.2549 31.7439 86.0053 32.5211C86.7556 33.2983 87.7716 33.7332 88.8298 33.7301C89.888 33.727 90.9016 33.2862 91.6477 32.5046C92.3939 31.723 92.8114 30.6647 92.8084 29.5625V29.54C92.8166 28.9958 92.7188 28.4555 92.521 27.9518C92.3231 27.4481 92.0293 26.9914 91.6572 26.6093C91.2852 26.2272 90.8426 25.9276 90.3563 25.7286C89.87 25.5296 89.35 25.4354 88.8277 25.4516M88.8277 32.5513C88.4574 32.5469 88.0917 32.4655 87.752 32.312C87.4123 32.1584 87.1054 31.9358 86.8494 31.6571C86.5934 31.3784 86.3934 31.0493 86.2611 30.689C86.1287 30.3287 86.0668 29.9446 86.0789 29.559V29.54C86.0626 29.1565 86.1211 28.7735 86.2508 28.4142C86.3804 28.0549 86.5786 27.7267 86.8334 27.4493C87.0882 27.172 87.3943 26.9513 87.7332 26.8005C88.0721 26.6497 88.4367 26.572 88.8053 26.572C89.1755 26.5763 89.5412 26.6575 89.881 26.8109C90.2207 26.9643 90.5276 27.1867 90.7838 27.4652C91.0399 27.7437 91.2402 28.0727 91.3727 28.4328C91.5053 28.7929 91.5675 29.177 91.5558 29.5625V29.5859C91.572 29.9695 91.5135 30.3527 91.3838 30.7122C91.254 31.0716 91.0557 31.4 90.8007 31.6774C90.5458 31.9549 90.2395 32.1757 89.9004 32.3264C89.5613 32.4772 89.1964 32.5549 88.8277 32.5548M88.8053 26.7659C88.4616 26.7664 88.1215 26.8393 87.8056 26.9803C87.4897 27.1213 87.2044 27.3274 86.967 27.5863C86.7296 27.8451 86.545 28.1514 86.4242 28.4865C86.3034 28.8217 86.249 29.1789 86.2643 29.5365V29.559C86.2476 29.9179 86.3008 30.2765 86.4208 30.6133C86.5408 30.9501 86.725 31.2581 86.9624 31.5188C87.1998 31.7794 87.4853 31.9873 87.8019 32.1298C88.1185 32.2724 88.4595 32.3467 88.8044 32.3483C89.1492 32.3499 89.4909 32.2787 89.8086 32.139C90.1264 31.9994 90.4137 31.7941 90.6532 31.5357C90.8928 31.2772 91.0796 30.9709 91.2024 30.6352C91.3253 30.2995 91.3815 29.9414 91.3679 29.5824V29.559C91.3837 29.1981 91.3292 28.8375 91.2076 28.4991C91.086 28.1607 90.8998 27.8515 90.6604 27.59C90.4209 27.3286 90.133 27.1204 89.8142 26.978C89.4954 26.8357 89.1522 26.762 88.8053 26.7616" fill="#E6EDED"/>
<path d="M93.4185 25.4941H94.9363L97.292 31.7479L99.6351 25.4941H101.118L97.8705 33.6899H96.6644L93.4185 25.4941Z" fill="#E6EDED"/>
<path d="M97.9337 33.7875H96.6038L93.2789 25.3986H94.9987L97.2912 31.4818L99.5712 25.396H101.259L97.9337 33.7875ZM96.7285 33.5944H97.8124L100.983 25.5934H99.7009L97.2903 32.0169L94.8732 25.5943H93.5566L96.7285 33.5944Z" fill="#E6EDED"/>
<path d="M102.458 25.4941H108.251V26.7729H103.83V28.889H107.748V30.1669H103.83V32.3531H108.306V33.6319H102.459L102.458 25.4941Z" fill="#E6EDED"/>
<path d="M108.4 33.7315H102.368V25.3989H108.346V26.8708H103.927V28.7964H107.844V30.2683H103.927V32.2596H108.403L108.4 33.7315ZM102.553 33.5376H108.214V32.451H103.74V30.0717H107.656V28.9869H103.74V26.676H108.159V25.5929H102.554L102.553 33.5376Z" fill="#E6EDED"/>
<path d="M109.936 25.4952H113.417C114.243 25.4481 115.052 25.7403 115.673 26.309C116.103 26.7822 116.335 27.4136 116.319 28.0649V28.0883C116.336 28.6617 116.158 29.2229 115.817 29.6735C115.476 30.1241 114.994 30.4353 114.455 30.5524L116.564 33.6338H114.946L113.027 30.7965H111.308V33.6338H109.936L109.936 25.4952ZM113.318 29.5299C114.299 29.5299 114.925 28.9948 114.925 28.1697V28.1463C114.925 27.2744 114.322 26.7982 113.306 26.7982H111.311V29.5299H113.318Z" fill="#E6EDED"/>
<path d="M116.747 33.7316H114.9L112.98 30.8943H111.401V33.7316H109.842V25.3981H113.417C114.266 25.3497 115.099 25.6518 115.736 26.2388C115.958 26.4814 116.133 26.7675 116.25 27.0805C116.366 27.3935 116.422 27.7274 116.415 28.0631V28.0873C116.434 28.6583 116.265 29.2189 115.936 29.6765C115.608 30.1341 115.14 30.4614 114.609 30.6042L116.747 33.7316ZM114.997 33.5385H116.387L114.309 30.4995L114.436 30.4614C114.955 30.3496 115.42 30.0506 115.748 29.6169C116.077 29.1833 116.248 28.6429 116.232 28.0908V28.0665C116.24 27.7566 116.189 27.448 116.083 27.1584C115.976 26.8688 115.816 26.604 115.611 26.3791C115.009 25.8281 114.223 25.5457 113.422 25.5929H110.034V33.5368H111.22V30.7012H113.08L114.997 33.5385ZM113.319 29.6276H111.217V26.6994H113.308C114.396 26.6994 115.019 27.2267 115.019 28.1453V28.1687C115.019 29.0536 114.354 29.6241 113.319 29.6241M111.407 29.4311H113.319C114.239 29.4311 114.833 28.935 114.833 28.1687V28.1453C114.833 27.3384 114.291 26.8934 113.308 26.8934H111.403L111.407 29.4311Z" fill="#E6EDED"/>
<path d="M117.48 32.4486L118.306 31.426C118.967 32.0951 119.85 32.4738 120.772 32.4841C121.62 32.4841 122.156 32.0771 122.156 31.4615V31.4356C122.156 30.8546 121.843 30.5403 120.393 30.1923C118.731 29.7741 117.793 29.2615 117.793 27.7628V27.7385C117.793 26.3429 118.908 25.3783 120.46 25.3783C121.492 25.357 122.497 25.7199 123.295 26.4017L122.558 27.4831C121.958 26.9701 121.214 26.6763 120.438 26.6468C119.635 26.6468 119.166 27.0797 119.166 27.6113V27.6346C119.166 28.2615 119.524 28.542 121.019 28.9135C122.67 29.3316 123.53 29.9481 123.53 31.297V31.323C123.53 32.846 122.38 33.7534 120.74 33.7534C119.536 33.7602 118.373 33.2968 117.481 32.4546" fill="#E6EDED"/>
<path d="M120.739 33.8457C119.512 33.8507 118.328 33.3772 117.419 32.5184L117.352 32.4561L118.296 31.2864L118.366 31.3505C119.009 32.0072 119.872 32.3782 120.772 32.3851C121.556 32.3851 122.063 32.0215 122.063 31.4596V31.4362C122.063 30.9331 121.814 30.6327 120.372 30.2864C118.679 29.8613 117.7 29.3106 117.7 27.7625V27.7392C117.7 26.2924 118.834 25.282 120.46 25.282C121.513 25.2626 122.538 25.6326 123.354 26.3261L123.421 26.3833L122.579 27.6197L122.503 27.5599C121.92 27.0573 121.194 26.7697 120.438 26.7417C119.733 26.7417 119.259 27.0881 119.259 27.6076V27.6301C119.259 28.1781 119.529 28.4387 121.04 28.8154C122.874 29.2794 123.622 29.9972 123.622 31.2933V31.3158C123.622 32.8509 122.49 33.8431 120.739 33.8431M117.61 32.4319C118.477 33.2189 119.589 33.6499 120.739 33.644C122.378 33.644 123.437 32.728 123.437 31.3106V31.2881C123.437 30.0846 122.753 29.4431 120.996 28.9989C119.487 28.6231 119.072 28.327 119.072 27.6257V27.6032C119.072 26.9772 119.633 26.5409 120.438 26.5409C121.202 26.5651 121.938 26.8447 122.537 27.3383L123.168 26.4127C122.399 25.7793 121.441 25.4456 120.46 25.469C118.945 25.469 117.884 26.3989 117.884 27.7322V27.7556C117.884 29.1842 118.772 29.6786 120.413 30.0933C121.818 30.4318 122.247 30.7444 122.247 31.4319V31.4552C122.247 32.1358 121.666 32.5747 120.77 32.5747C119.858 32.5677 118.982 32.205 118.314 31.5583L117.61 32.4319Z" fill="#E6EDED"/>
<path d="M125.147 25.4941H130.94V26.7729H126.521V28.889H130.438V30.1669H126.521V32.3531H130.996V33.6319H125.147V25.4941Z" fill="#E6EDED"/>
<path d="M131.089 33.7315H125.055V25.3989H131.033V26.8708H126.617V28.7964H130.535V30.2683H126.617V32.2596H131.093L131.089 33.7315ZM125.242 33.5376H130.904V32.451H126.429V30.0717H130.345V28.9869H126.429V26.676H130.848V25.5929H125.242V33.5376Z" fill="#E6EDED"/>
<path d="M135.394 25.437H136.665L140.103 33.6328H138.652L137.86 31.6683H134.166L133.362 33.6328H131.956L135.394 25.437ZM137.357 30.4007L136.007 27.1453L134.667 30.4007H137.357Z" fill="#E6EDED"/>
<path d="M140.245 33.7286H138.59L137.797 31.7632H134.223L133.419 33.7286H131.81L135.328 25.3389H136.722L136.746 25.3969L140.245 33.7286ZM138.714 33.5347H139.96L136.604 25.5328H135.456L132.1 33.5347H133.302L134.106 31.5701H137.923L138.714 33.5347ZM137.498 30.4965H134.526L136.006 26.8999L137.498 30.4965ZM134.808 30.3026H137.218L136.009 27.39L134.808 30.3026Z" fill="#E6EDED"/>
<path d="M140.783 32.4486L141.609 31.426C142.27 32.0949 143.153 32.4737 144.075 32.4841C144.923 32.4841 145.459 32.0771 145.459 31.4615V31.4356C145.459 30.8546 145.147 30.5403 143.695 30.1923C142.033 29.7741 141.095 29.2615 141.095 27.7628V27.7385C141.095 26.3428 142.211 25.3783 143.763 25.3783C144.795 25.3571 145.8 25.72 146.598 26.4017L145.86 27.4831C145.261 26.9699 144.516 26.6761 143.74 26.6467C142.937 26.6467 142.467 27.0796 142.467 27.6113V27.6346C142.467 28.2615 142.826 28.542 144.32 28.9134C145.972 29.3316 146.831 29.9481 146.831 31.297V31.323C146.831 32.846 145.682 33.7533 144.041 33.7533C142.837 33.7604 141.674 33.297 140.782 32.4546" fill="#E6EDED"/>
<path d="M144.043 33.8457C142.816 33.8508 141.631 33.3773 140.723 32.5184L140.655 32.4561L141.6 31.2864L141.671 31.3504C142.314 32.0072 143.176 32.3781 144.077 32.3851C144.861 32.3851 145.368 32.0215 145.368 31.4595V31.4362C145.368 30.9331 145.118 30.6327 143.677 30.2864C141.984 29.8612 141.005 29.3106 141.005 27.7625V27.7391C141.005 26.2924 142.14 25.282 143.765 25.282C144.817 25.2629 145.842 25.6328 146.658 26.3261L146.726 26.3833L145.884 27.6197L145.807 27.5599C145.225 27.0573 144.499 26.7696 143.743 26.7417C143.038 26.7417 142.564 27.088 142.564 27.6075V27.63C142.564 28.1781 142.832 28.4387 144.345 28.8153C146.179 29.2794 146.927 29.9972 146.927 31.2933V31.3158C146.927 32.8509 145.796 33.8431 144.044 33.8431M140.913 32.4318C141.78 33.2187 142.892 33.6496 144.042 33.644C145.68 33.644 146.739 32.728 146.739 31.3106V31.2881C146.739 30.0846 146.055 29.4431 144.299 28.9989C142.789 28.6231 142.375 28.327 142.375 27.6257V27.6032C142.375 26.9772 142.936 26.5408 143.741 26.5408C144.505 26.5648 145.24 26.8444 145.84 27.3383L146.471 26.4127C145.701 25.7793 144.744 25.4455 143.763 25.469C142.247 25.469 141.187 26.3989 141.187 27.7322V27.7556C141.187 29.1842 142.075 29.6786 143.715 30.0933C145.121 30.4318 145.55 30.7444 145.55 31.4318V31.4552C145.55 32.1357 144.968 32.5747 144.072 32.5747C143.16 32.5676 142.284 32.205 141.617 31.5582L140.913 32.4318Z" fill="#E6EDED"/>
<path d="M86.5261 43.6493C86.0014 44.0256 85.3818 44.2324 84.7448 44.2441C84.3983 44.2363 84.058 44.1465 83.7497 43.9815C83.4414 43.8165 83.1731 43.5806 82.9652 43.2917C83.6291 43.6083 84.3727 43.6959 85.0877 43.5419C85.8028 43.3879 86.452 43.0003 86.9409 42.4354C87.2011 42.1289 86.5851 41.5436 86.0266 41.2544L86.4422 40.5791C87.0107 40.9653 88.4953 42.2103 86.5253 43.6519" fill="#E6EDED"/>
<path d="M90.7146 42.3256H90.1918C89.5883 42.3256 89.2076 42.1819 89.0173 41.5957C88.9533 41.3666 88.9138 41.1308 88.8992 40.8927L88.59 37.8744C88.8206 37.6317 89.067 37.4058 89.3273 37.1982C89.3888 37.5518 89.4166 37.9108 89.4104 38.2701L89.5642 40.9836C89.5642 41 89.5883 41.4329 89.7429 41.5594C89.93 41.6696 90.1473 41.7107 90.3597 41.6762H90.7038L90.7146 42.3256Z" fill="#E6EDED"/>
<path d="M90.4536 41.6761H90.6922C91.1953 41.7028 91.6997 41.6756 92.1975 41.5947C92.3413 41.4415 92.7444 40.27 93.5507 40.2432C93.7689 40.2841 93.9765 40.3717 94.1605 40.5004C94.3445 40.6292 94.5008 40.7963 94.6197 40.9912C94.7538 41.1956 94.8393 41.4304 94.869 41.6761H95.1774V42.3211H94.6554L94.5249 42.2207C94.2075 42.3103 93.8741 42.3198 93.5524 42.2484C93.1252 42.2202 92.7123 42.0773 92.3538 41.8337C92.2178 42.003 92.0475 42.1387 91.855 42.2311C91.6111 42.2979 91.359 42.3271 91.107 42.3177H90.4536V41.6761ZM94.2988 41.6934C94.4293 41.6657 94.1209 40.8016 93.5507 40.8016C93.3844 40.8253 93.2247 40.8846 93.0816 40.976C92.9385 41.0674 92.8152 41.1887 92.7195 41.3324C93.1891 41.6416 93.748 41.7693 94.2988 41.6934Z" fill="#E6EDED"/>
<path d="M94.6546 41.6792H94.9164C95.332 41.6792 95.7709 41.7233 96.1267 41.7155C96.5531 41.6965 97.2421 41.6792 97.2421 41.6515C97.2305 41.2922 96.6952 40.8056 96.6836 40.8056L97.1108 40.0489C97.3585 40.3136 97.5597 40.6216 97.7051 40.9588C97.831 41.1775 97.9042 41.4247 97.9187 41.6792H98.1914V42.3285H97.5381L97.4184 42.2645C96.9909 42.3346 96.5586 42.3679 96.1258 42.364C96.0302 42.364 95.2456 42.3285 94.9156 42.3285H94.6537L94.6546 41.6792ZM95.4858 38.3094L96.4234 38.7423L96.7442 38.3449L97.7168 38.7952L97.312 39.2999L96.3752 38.8765L96.0668 39.2722L95.0694 38.8315L95.4858 38.3094ZM95.6753 37.228L96.6237 37.6696L96.2222 38.183L95.2597 37.7501L95.6753 37.228Z" fill="#E6EDED"/>
<path d="M97.6677 41.676H97.9287C98.3443 41.676 98.7848 41.7202 99.1389 41.7132C99.5662 41.6942 100.254 41.676 100.254 41.6492C100.243 41.289 99.7091 40.8033 99.6967 40.8033L100.124 40.0465C100.372 40.3113 100.573 40.6193 100.718 40.9565C100.845 41.1749 100.918 41.4222 100.932 41.6769H101.204V42.3254H100.551L100.431 42.2613C100.004 42.3319 99.5717 42.3655 99.1389 42.3617C99.0442 42.3617 98.2595 42.3254 97.9287 42.3254H97.6677V41.676ZM98.5454 38.2612L99.4955 38.7028L99.803 38.3054L100.79 38.7469L100.386 39.2604L99.4356 38.8275L99.1397 39.2232L98.1423 38.7902L98.5454 38.2612Z" fill="#E6EDED"/>
<path d="M103.077 42.1082C102.953 42.1854 102.816 42.2401 102.674 42.2701C102.308 42.3151 101.939 42.3333 101.57 42.3247H100.942V41.6762H101.191C101.786 41.7296 102.385 41.6961 102.971 41.5766C103.054 41.5229 102.982 41.0909 102.971 41.0641L103.672 40.4502C103.719 40.6378 103.729 40.8333 103.703 41.0253C103.677 41.2172 103.614 41.4018 103.518 41.568C103.958 41.667 104.409 41.7034 104.859 41.6762C105.06 41.7195 105.12 42.3152 104.859 42.3247H104.361C103.926 42.3105 103.494 42.2377 103.077 42.1082Z" fill="#E6EDED"/>
<path d="M106.048 41.6123C106.057 41.5406 106.061 41.4683 106.06 41.3959C106.058 41.2965 106.05 41.1972 106.036 41.0989L106.654 40.4928C106.74 40.8622 106.689 41.2517 106.512 41.5838C106.999 41.7462 107.519 41.771 108.018 41.6556C108.113 41.647 107.935 41.0167 107.817 40.9344L108.541 40.3491C108.626 40.6904 108.674 41.0407 108.685 41.3933C108.685 42.0782 108.445 42.1604 108.435 42.1864C107.871 42.3472 107.279 42.3753 106.703 42.2686C106.429 42.2323 106.05 42.0955 106.038 42.1059C105.672 42.2866 105.268 42.367 104.863 42.3396C104.768 42.3396 104.506 41.6747 104.816 41.6747C105.228 41.7003 105.641 41.6788 106.049 41.6106" fill="#E6EDED"/>
<path d="M112.55 40.5776C112.805 40.8887 112.945 41.2847 112.943 41.6936C112.86 42.3066 112.742 42.3689 112.432 42.3863L110.415 42.5127L110.498 41.7906C110.824 41.6557 111.131 41.4773 111.413 41.2598C111.65 41.0791 111.869 40.8737 112.066 40.6468C111.864 40.4217 111.401 39.9542 111.199 39.781C110.938 39.555 110.438 39.1749 110.095 38.942L109.798 39.2494C109.798 39.2494 109.003 38.7897 108.837 38.3568C108.796 38.2408 108.794 38.1138 108.83 37.9962C108.867 37.8786 108.94 37.7771 109.039 37.7083C109.312 37.4563 110.581 38.4572 111.318 39.1498C111.684 39.5157 112.033 39.9006 112.362 40.3031C112.49 40.0785 112.593 39.8395 112.669 39.5905C112.792 38.9285 112.759 38.2454 112.575 37.5992L113.026 37.1758C113.074 37.3849 113.182 37.5737 113.336 37.7169C113.477 37.8442 113.774 38.0632 113.785 38.0676L113.442 38.626L113.239 38.5628C113.241 38.8372 113.205 39.1104 113.132 39.3741C113.008 39.8063 112.811 40.2121 112.55 40.5724M111.317 41.7785L112.54 41.7611L112.563 41.5984C112.566 41.4748 112.541 41.3523 112.492 41.24C112.443 41.1276 112.369 41.0284 112.278 40.9499C112.182 40.9499 111.957 41.2096 111.803 41.3265C111.434 41.6062 111.27 41.7785 111.317 41.7785Z" fill="#E6EDED"/>
<path d="M115.944 40.2434V41.7837L115.293 42.5578V40.982L114.96 37.8737L115.708 37.1611L115.944 40.2434Z" fill="#E6EDED"/>
<path d="M123.327 42.3258H122.888C122.637 42.3554 122.383 42.2989 122.165 42.1647C122.033 42.0328 121.949 41.8576 121.927 41.6686L121.878 41.2825C121.868 41.2089 121.808 41.1093 121.772 41.1093C121.736 41.1093 121.665 41.2539 121.559 41.3353C121.475 41.4005 121.383 41.4548 121.286 41.4972C120.99 41.4924 120.699 41.4216 120.432 41.2894C120.159 41.1275 119.78 40.9379 119.933 40.7041L120.194 40.3171C120.359 40.1351 120.556 39.9881 120.775 39.8842C121.081 39.7783 121.394 39.6972 121.712 39.6417L121.69 39.2348L122.056 38.8114C122.164 38.6945 122.139 39.0902 122.164 39.2712C122.188 39.5153 122.2 39.6859 122.212 39.9569L122.235 40.5231C122.247 40.8045 122.279 41.0846 122.33 41.3612C122.378 41.5232 122.413 41.6773 122.781 41.6773H123.327V42.3258ZM120.656 37.3906L121.606 37.8235L121.913 37.427L122.899 37.8772L122.496 38.382L121.545 37.9577L121.249 38.3551L120.252 37.9222L120.656 37.3906ZM121.665 39.8868C121.394 40.0464 121.113 40.1851 120.823 40.3015C120.706 40.3367 120.587 40.3607 120.466 40.3734C120.595 40.546 120.768 40.6772 120.965 40.7517C121.358 40.9145 121.868 40.9863 121.832 40.7881C121.809 40.608 121.808 39.9413 121.665 39.8868Z" fill="#E6EDED"/>
<path d="M123.054 41.6765H124.406C124.323 41.6324 123.896 41.1276 123.896 40.9553C123.896 40.8202 124.739 39.6133 125.616 39.6133C126.577 39.6133 127.124 40.5319 127.029 40.6124C126.957 40.6661 125.628 39.6938 124.667 40.8375C125.004 41.2901 125.499 41.5853 126.044 41.6583L128.014 41.4679L127.623 42.1527L125.379 42.3259H123.065L123.054 41.6765Z" fill="#E6EDED"/>
<path d="M132.371 42.3256H131.943C131.736 42.8272 131.402 43.2599 130.975 43.5762C130.548 43.8925 130.046 44.0803 129.523 44.1187C128.312 44.1629 127.206 42.8659 127.387 42.7932C127.918 43.2289 128.563 43.4896 129.237 43.5421C129.681 43.5573 130.122 43.4539 130.516 43.2417C130.911 43.0296 131.247 42.7157 131.493 42.33C131.173 42.3456 130.105 42.1854 130.08 41.6529C130.01 40.4191 130.971 39.8693 131.387 40.2832C132.144 41.039 132.052 41.6685 132.038 41.6797H132.371V42.3256ZM131.588 41.6763C131.671 41.6035 131.445 40.9274 130.923 40.91C130.687 40.9005 130.424 41.252 130.472 41.3152C130.673 41.7204 131.563 41.6936 131.588 41.6763Z" fill="#E6EDED"/>
<path d="M132.11 41.6761H132.346C132.85 41.7029 133.355 41.6756 133.854 41.5947C133.996 41.4415 134.399 40.27 135.206 40.2432C135.424 40.284 135.632 40.3716 135.816 40.5004C136 40.6291 136.156 40.7963 136.275 40.9912C136.409 41.1956 136.495 41.4304 136.524 41.6761H136.834V42.3211H136.311L136.181 42.2207C135.863 42.3102 135.529 42.3197 135.207 42.2484C134.78 42.2202 134.367 42.0773 134.009 41.8337C133.873 42.0025 133.702 42.1382 133.51 42.2311C133.266 42.2981 133.014 42.3273 132.762 42.3177H132.111L132.11 41.6761ZM135.954 41.6934C136.085 41.6657 135.775 40.8016 135.206 40.8016C135.04 40.8255 134.88 40.8849 134.737 40.9763C134.594 41.0676 134.471 41.1889 134.375 41.3324C134.844 41.6419 135.403 41.7697 135.954 41.6934Z" fill="#E6EDED"/>
<path d="M143.394 42.3252H143.133C141.697 42.3252 140.879 42.3971 139.455 42.4118C138.446 42.4222 137.865 42.3252 136.856 42.3252H136.571V41.6767H136.844C137.558 41.6767 138.375 41.7572 139.36 41.7572C139.906 41.7572 140.214 41.7754 140.748 41.7399L141.116 41.7122C140.42 41.1428 139.578 40.8014 138.695 40.7313C138.355 40.8029 138.022 40.9049 137.698 41.036C137.579 41.0092 138.683 39.2178 140.985 40.8204C141.518 41.2436 142.141 41.5277 142.802 41.649L143.134 41.6776H143.395L143.394 42.3252ZM139.336 43.333L140.285 43.7659L139.869 44.2854L138.92 43.8438L139.336 43.333ZM143.394 41.6767H143.277C143.702 41.7002 144.128 41.6729 144.546 41.5953C144.689 41.4421 145.093 40.2706 145.9 40.2438C146.251 40.3149 146.57 40.5058 146.806 40.7863C147.042 41.0669 147.182 41.4212 147.204 41.7936C147.181 42.1261 147.003 42.3884 145.9 42.2534C145.472 42.2257 145.059 42.0828 144.701 41.8386C144.564 42.0073 144.394 42.1429 144.202 42.236C143.958 42.303 143.706 42.3322 143.454 42.3226H143.394V41.6767ZM146.649 41.694C146.779 41.6663 146.468 40.8022 145.9 40.8022C145.734 40.8259 145.574 40.8853 145.431 40.9767C145.288 41.0681 145.165 41.1894 145.069 41.333C145.539 41.6423 146.098 41.77 146.649 41.694Z" fill="#E6EDED"/>
<path d="M13.9838 14.0044C14.876 12.9991 15.9515 12.1888 17.1474 11.6208C18.4451 11.0338 19.8456 10.7334 21.2604 10.7386C22.6752 10.7438 24.0736 11.0545 25.3673 11.6511C26.5825 12.2389 27.6758 13.0683 28.5857 14.0927C28.7935 14.3274 28.9855 14.5733 29.1676 14.8261C29.3562 14.2304 29.564 13.639 29.8034 13.0589C30.9075 10.348 32.5216 7.89484 34.5505 5.84412C34.725 5.67095 34.9062 5.49779 35.0874 5.32463C33.4919 3.99979 31.7223 2.9201 29.8325 2.11852C27.1406 0.981035 24.259 0.410725 21.3542 0.440567C18.4516 0.411618 15.5723 0.981912 12.8825 2.11852C12.6697 2.21029 12.4619 2.30899 12.2532 2.40683V16.7577C12.6844 15.7494 13.2688 14.8191 13.9838 14.0044Z" fill="#E6EDED"/>
<path d="M11.0986 2.99306V2.25279C11.0986 1.81036 10.93 1.38603 10.6298 1.07303C10.3297 0.760029 9.92247 0.583955 9.49772 0.583496H1.85058C1.42641 0.584871 1.02007 0.761349 0.72061 1.07425C0.421146 1.38716 0.252989 1.81096 0.252991 2.25279V10.1707C0.252991 10.6132 0.421745 11.0375 0.722131 11.3504C1.02252 11.6633 1.42993 11.8391 1.85474 11.8391H9.50188C9.92669 11.8391 10.3341 11.6633 10.6345 11.3504C10.9349 11.0375 11.1036 10.6132 11.1036 10.1707L11.0986 2.99306Z" fill="#E6EDED"/>
<path d="M41.8701 16.0671H21.892V27.6517H30.1658L29.1784 29.0275C29.0121 29.2647 28.8309 29.4967 28.6414 29.7149C27.7569 30.7293 26.6796 31.541 25.4778 32.0985C24.1812 32.6986 22.7754 32.9996 21.3567 32.9808C19.9342 32.9999 18.5254 32.6884 17.233 32.0691C16.0227 31.4863 14.9375 30.6556 14.042 29.6266C13.1491 28.5942 12.4499 27.3966 11.9806 26.0958C11.6011 25.0547 11.3676 23.9621 11.2874 22.8516H11.2375V13.0757H0.114231V19.5918C0.0404803 20.3455 0.00330551 21.1026 0.0028483 21.8602V21.978C-0.0146716 24.8298 0.533759 27.6545 1.61374 30.2751C2.65144 32.8115 4.15792 35.1106 6.04742 37.0414C7.98374 39.0006 10.267 40.5494 12.7703 41.6017C15.4606 42.7385 18.3405 43.3088 21.2436 43.2796C24.147 43.3089 27.0273 42.7386 29.7178 41.6017C31.6143 40.7967 33.3917 39.7158 34.9968 38.3912C35.5194 37.9572 36.0206 37.4974 36.5005 37.012C38.4199 35.0722 39.9461 32.751 40.9891 30.1859C41.2018 29.6725 41.3831 29.1469 41.5493 28.6197C41.5566 28.5911 41.5624 28.5622 41.5667 28.5331L41.5717 28.5426C41.6316 28.3417 41.7878 27.8499 41.8427 27.6499C42.3491 25.7648 42.6037 23.816 42.5991 21.8585V21.7425C42.6042 19.8254 42.3592 17.9164 41.871 16.0679" fill="#E6EDED"/>
<path d="M70.3051 13.4441C69.2663 10.9066 67.7597 8.60594 65.8706 6.67258C63.9334 4.71445 61.6504 3.16583 59.1477 2.11234C53.7024 -0.123384 47.6455 -0.123384 42.2001 2.11234C39.6798 3.1771 37.3786 4.73476 35.4208 6.70116C33.5022 8.64201 31.9761 10.9633 30.9322 13.5281C30.7569 13.9541 30.5998 14.3853 30.4593 14.8208H42.6698C42.8644 14.5338 43.0757 14.2594 43.3023 13.9991C44.1936 12.9931 45.2689 12.1827 46.4651 11.6155C47.7628 11.0285 49.1631 10.728 50.5779 10.7329C51.9926 10.7378 53.3911 11.0481 54.6849 11.6441C55.9008 12.2324 56.9947 13.0624 57.9051 14.0874C58.8125 15.1141 59.5222 16.3127 59.9956 17.6182C60.4884 18.9716 60.7373 20.4081 60.7295 21.8555V21.9724C60.7373 23.4198 60.4885 24.8564 59.9956 26.2097C59.532 27.4982 58.8423 28.6855 57.9616 29.711C57.0772 30.7265 55.9995 31.5392 54.7972 32.0972C53.4996 32.6981 52.0926 32.9994 50.6727 32.9804C49.2499 32.9993 47.841 32.6879 46.5482 32.0687C45.3375 31.4862 44.2519 30.6555 43.3564 29.6262C43.1187 29.3499 42.8951 29.0609 42.6864 28.7604C42.5202 29.2799 42.3423 29.7924 42.1345 30.2981C41.029 33.0125 39.4129 35.4689 37.3816 37.5224C37.1422 37.7649 36.8962 37.9995 36.646 38.2307C38.2882 39.6289 40.1219 40.7635 42.0863 41.5969C47.5314 43.8336 53.5887 43.8336 59.0338 41.5969C61.554 40.5319 63.8552 38.9743 65.8132 37.0081C67.7558 35.0395 69.2973 32.6831 70.3454 30.0797C71.3936 27.4763 71.9269 24.6794 71.9135 21.8564V21.7378C71.9315 18.8861 71.3836 16.0614 70.3042 13.4407" fill="#E6EDED"/>
<path d="M78.209 1.73779H77.7551V44.2883H78.209V1.73779Z" fill="#E6EDED"/>
<path d="M86.5327 3.01904H85.1604V11.1568H86.5327V3.01904Z" fill="#E6EDED"/>
<path d="M86.625 11.2532H85.0657V2.92236H86.625V11.2532ZM85.2527 11.0602H86.4397V3.11631H85.2527V11.0602Z" fill="#E6EDED"/>
<path d="M88.6191 3.01904H89.8909L94.076 8.64684V3.01904H95.4268V11.1577H94.2772L89.969 5.36886V11.1577H88.6191V3.01904Z" fill="#E6EDED"/>
<path d="M95.5206 11.2532H94.2347L94.2065 11.216L90.0662 5.65054V11.2532H88.5293V2.92236H89.9424L89.9698 2.95959L93.9879 8.36228V2.92236H95.5248L95.5206 11.2532ZM94.3237 11.0602H95.3344V3.11631H94.1707V8.92852L89.8484 3.11631H88.7155V11.0602H89.8792V5.08603L94.3237 11.0602Z" fill="#E6EDED"/>
<path d="M96.7659 3.01904H98.2837L100.639 9.27282L102.984 3.01904H104.468L101.22 11.2148H100.015L96.7659 3.01904Z" fill="#E6EDED"/>
<path d="M101.281 11.3112H99.9511L96.6262 2.92236H98.3468L100.639 9.00817L102.92 2.92236H104.607L101.281 11.3112ZM100.076 11.1173H101.156L104.327 3.11544H103.046L100.635 9.53805L98.2172 3.11544H96.9013L100.076 11.1173Z" fill="#E6EDED"/>
<path d="M105.807 3.01904H111.599V4.29785H107.179V6.41304H111.097V7.69184H107.179V9.87716H111.655V11.156H105.808L105.807 3.01904Z" fill="#E6EDED"/>
<path d="M111.747 11.2532H105.713V2.92236H111.691V4.39425H107.271V6.31722H111.188V7.78911H107.271V9.78048H111.747V11.2532ZM105.896 11.0602H111.558V9.97442H107.083V7.59603H111V6.51116H107.083V4.20117H111.502V3.11631H105.896V11.0602Z" fill="#E6EDED"/>
</g>
</svg>
