<svg width="53" height="51" viewBox="0 0 53 51" fill="none" xmlns="http://www.w3.org/2000/svg">
<path d="M6.21179 11.4212C6.32055 11.4212 6.42825 11.3998 6.52873 11.3582C6.62922 11.3166 6.72052 11.2556 6.79742 11.1787C6.87433 11.1018 6.93533 11.0105 6.97693 10.91C7.01854 10.8095 7.03994 10.7018 7.03992 10.593V9.76575C7.03992 9.54616 6.95269 9.33557 6.79742 9.1803C6.64215 9.02503 6.43156 8.9378 6.21197 8.9378C5.99239 8.9378 5.7818 9.02503 5.62653 9.1803C5.47126 9.33557 5.38403 9.54616 5.38403 9.76575V10.593C5.38409 10.8126 5.47131 11.0231 5.62652 11.1784C5.78173 11.3337 5.99224 11.421 6.21179 11.4212ZM6.21179 16.3907C6.32055 16.3908 6.42825 16.3694 6.52873 16.3278C6.62922 16.2862 6.72052 16.2252 6.79742 16.1483C6.87433 16.0713 6.93533 15.98 6.97693 15.8796C7.01854 15.7791 7.03994 15.6714 7.03992 15.5626V14.7353C7.03992 14.5157 6.95269 14.3052 6.79742 14.1499C6.64215 13.9946 6.43156 13.9074 6.21197 13.9074C5.99239 13.9074 5.7818 13.9946 5.62653 14.1499C5.47126 14.3052 5.38403 14.5157 5.38403 14.7353V15.5626C5.38409 15.7822 5.47131 15.9927 5.62652 16.148C5.78173 16.3033 5.99224 16.3906 6.21179 16.3907ZM9.10982 11.8361H8.28288C8.06325 11.8361 7.85261 11.9233 7.69731 12.0786C7.54201 12.2339 7.45476 12.4446 7.45476 12.6642C7.45476 12.8838 7.54201 13.0945 7.69731 13.2498C7.85261 13.4051 8.06325 13.4923 8.28288 13.4923H9.10982C9.32945 13.4923 9.54008 13.4051 9.69539 13.2498C9.85069 13.0945 9.93794 12.8838 9.93794 12.6642C9.93794 12.4446 9.85069 12.2339 9.69539 12.0786C9.54008 11.9233 9.32945 11.8361 9.10982 11.8361ZM3.31335 13.4923H4.14065C4.36028 13.4923 4.57092 13.4051 4.72622 13.2498C4.88153 13.0945 4.96878 12.8838 4.96878 12.6642C4.96878 12.4446 4.88153 12.2339 4.72622 12.0786C4.57092 11.9233 4.36028 11.8361 4.14065 11.8361H3.31335C3.09372 11.8361 2.88309 11.9233 2.72778 12.0786C2.57248 12.2339 2.48523 12.4446 2.48523 12.6642C2.48523 12.8838 2.57248 13.0945 2.72778 13.2498C2.88309 13.4051 3.09372 13.4923 3.31335 13.4923ZM6.21179 38.7501C5.99224 38.7503 5.78173 38.8376 5.62652 38.9929C5.47131 39.1481 5.38409 39.3587 5.38403 39.5782V40.4055C5.38403 40.5143 5.40545 40.6219 5.44706 40.7224C5.48866 40.8228 5.54965 40.9141 5.62653 40.991C5.70341 41.0679 5.79468 41.1289 5.89513 41.1705C5.99559 41.2121 6.10325 41.2335 6.21197 41.2335C6.3207 41.2335 6.42836 41.2121 6.52881 41.1705C6.62927 41.1289 6.72054 41.0679 6.79742 40.991C6.8743 40.9141 6.93529 40.8228 6.97689 40.7224C7.0185 40.6219 7.03992 40.5143 7.03992 40.4055V39.5782C7.03994 39.4695 7.01854 39.3618 6.97693 39.2613C6.93533 39.1608 6.87433 39.0695 6.79742 38.9926C6.72052 38.9157 6.62922 38.8547 6.52873 38.8131C6.42825 38.7715 6.32055 38.7501 6.21179 38.7501ZM6.21179 43.7197C5.99224 43.7199 5.78173 43.8072 5.62652 43.9624C5.47131 44.1177 5.38409 44.3283 5.38403 44.5478V45.3751C5.38403 45.4838 5.40545 45.5915 5.44706 45.692C5.48866 45.7924 5.54965 45.8837 5.62653 45.9606C5.70341 46.0374 5.79468 46.0984 5.89513 46.14C5.99559 46.1816 6.10325 46.2031 6.21197 46.2031C6.3207 46.2031 6.42836 46.1816 6.52881 46.14C6.62927 46.0984 6.72054 46.0374 6.79742 45.9606C6.8743 45.8837 6.93529 45.7924 6.97689 45.692C7.0185 45.5915 7.03992 45.4838 7.03992 45.3751V44.5478C7.03994 44.4391 7.01854 44.3314 6.97693 44.2309C6.93533 44.1304 6.87433 44.0391 6.79742 43.9622C6.72052 43.8853 6.62922 43.8243 6.52873 43.7827C6.42825 43.7411 6.32055 43.7197 6.21179 43.7197ZM9.10982 41.6486H8.28288C8.06325 41.6486 7.85261 41.7358 7.69731 41.8911C7.54201 42.0464 7.45476 42.2571 7.45476 42.4767C7.45476 42.6963 7.54201 42.907 7.69731 43.0623C7.85261 43.2176 8.06325 43.3048 8.28288 43.3048H9.10982C9.32945 43.3048 9.54008 43.2176 9.69539 43.0623C9.85069 42.907 9.93794 42.6963 9.93794 42.4767C9.93794 42.2571 9.85069 42.0464 9.69539 41.8911C9.54008 41.7358 9.32945 41.6486 9.10982 41.6486ZM4.14065 41.6486H3.31335C3.09372 41.6486 2.88309 41.7358 2.72778 41.8911C2.57248 42.0464 2.48523 42.2571 2.48523 42.4767C2.48523 42.6963 2.57248 42.907 2.72778 43.0623C2.88309 43.2176 3.09372 43.3048 3.31335 43.3048H4.14065C4.36028 43.3048 4.57092 43.2176 4.72622 43.0623C4.88153 42.907 4.96878 42.6963 4.96878 42.4767C4.96878 42.2571 4.88153 42.0464 4.72622 41.8911C4.57092 41.7358 4.36028 41.6486 4.14065 41.6486ZM46.7842 11.4212C46.893 11.4212 47.0008 11.3999 47.1013 11.3583C47.2018 11.3167 47.2932 11.2557 47.3701 11.1788C47.4471 11.1019 47.5081 11.0106 47.5497 10.9101C47.5914 10.8096 47.6128 10.7018 47.6128 10.593V9.76575C47.6128 9.54611 47.5255 9.33548 47.3702 9.18017C47.2149 9.02487 47.0043 8.93762 46.7847 8.93762C46.565 8.93762 46.3544 9.02487 46.1991 9.18017C46.0438 9.33548 45.9565 9.54611 45.9565 9.76575V10.593C45.9566 10.8126 46.0438 11.0231 46.199 11.1784C46.3542 11.3337 46.5647 11.421 46.7842 11.4212ZM46.7842 16.3907C46.893 16.3908 47.0008 16.3694 47.1013 16.3279C47.2018 16.2863 47.2932 16.2253 47.3701 16.1484C47.4471 16.0715 47.5081 15.9802 47.5497 15.8796C47.5914 15.7791 47.6128 15.6714 47.6128 15.5626V14.7353C47.6128 14.5157 47.5255 14.3051 47.3702 14.1498C47.2149 13.9944 47.0043 13.9072 46.7847 13.9072C46.565 13.9072 46.3544 13.9944 46.1991 14.1498C46.0438 14.3051 45.9565 14.5157 45.9565 14.7353V15.5626C45.9566 15.7822 46.0438 15.9927 46.199 16.148C46.3542 16.3033 46.5647 16.3906 46.7842 16.3907ZM48.8558 13.4923H49.6827C49.9023 13.4923 50.1129 13.4051 50.2682 13.2498C50.4236 13.0945 50.5108 12.8838 50.5108 12.6642C50.5108 12.4446 50.4236 12.2339 50.2682 12.0786C50.1129 11.9233 49.9023 11.8361 49.6827 11.8361H48.8558C48.6361 11.8361 48.4255 11.9233 48.2702 12.0786C48.1149 12.2339 48.0276 12.4446 48.0276 12.6642C48.0276 12.8838 48.1149 13.0945 48.2702 13.2498C48.4255 13.4051 48.6361 13.4923 48.8558 13.4923ZM43.887 13.4923H44.7143C44.934 13.4923 45.1446 13.4051 45.2999 13.2498C45.4552 13.0945 45.5425 12.8838 45.5425 12.6642C45.5425 12.4446 45.4552 12.2339 45.2999 12.0786C45.1446 11.9233 44.934 11.8361 44.7143 11.8361H43.887C43.6674 11.8361 43.4567 11.9233 43.3014 12.0786C43.1461 12.2339 43.0589 12.4446 43.0589 12.6642C43.0589 12.8838 43.1461 13.0945 43.3014 13.2498C43.4567 13.4051 43.6674 13.4923 43.887 13.4923ZM46.7842 38.7501C46.5647 38.7503 46.3542 38.8376 46.199 38.9929C46.0438 39.1482 45.9566 39.3587 45.9565 39.5782V40.4055C45.9565 40.6252 46.0438 40.8358 46.1991 40.9911C46.3544 41.1464 46.565 41.2337 46.7847 41.2337C47.0043 41.2337 47.2149 41.1464 47.3702 40.9911C47.5255 40.8358 47.6128 40.6252 47.6128 40.4055V39.5782C47.6128 39.4695 47.5914 39.3617 47.5497 39.2612C47.5081 39.1607 47.4471 39.0694 47.3701 38.9925C47.2932 38.9156 47.2018 38.8546 47.1013 38.813C47.0008 38.7714 46.893 38.7501 46.7842 38.7501ZM46.7842 43.7197C46.5647 43.7199 46.3542 43.8072 46.199 43.9625C46.0438 44.1177 45.9566 44.3283 45.9565 44.5478V45.3751C45.9565 45.5948 46.0438 45.8054 46.1991 45.9607C46.3544 46.116 46.565 46.2032 46.7847 46.2032C47.0043 46.2032 47.2149 46.116 47.3702 45.9607C47.5255 45.8054 47.6128 45.5948 47.6128 45.3751V44.5478C47.6128 44.439 47.5914 44.3313 47.5497 44.2308C47.5081 44.1303 47.4471 44.039 47.3701 43.9621C47.2932 43.8852 47.2018 43.8242 47.1013 43.7826C47.0008 43.741 46.893 43.7196 46.7842 43.7197ZM49.6827 41.6486H48.8558C48.6361 41.6486 48.4255 41.7358 48.2702 41.8911C48.1149 42.0464 48.0276 42.2571 48.0276 42.4767C48.0276 42.6963 48.1149 42.907 48.2702 43.0623C48.4255 43.2176 48.6361 43.3048 48.8558 43.3048H49.6827C49.9023 43.3048 50.1129 43.2176 50.2682 43.0623C50.4236 42.907 50.5108 42.6963 50.5108 42.4767C50.5108 42.2571 50.4236 42.0464 50.2682 41.8911C50.1129 41.7358 49.9023 41.6486 49.6827 41.6486ZM44.7143 41.6486H43.887C43.6674 41.6486 43.4567 41.7358 43.3014 41.8911C43.1461 42.0464 43.0589 42.2571 43.0589 42.4767C43.0589 42.6963 43.1461 42.907 43.3014 43.0623C43.4567 43.2176 43.6674 43.3048 43.887 43.3048H44.7143C44.934 43.3048 45.1446 43.2176 45.2999 43.0623C45.4552 42.907 45.5425 42.6963 45.5425 42.4767C45.5425 42.2571 45.4552 42.0464 45.2999 41.8911C45.1446 41.7358 44.934 41.6486 44.7143 41.6486ZM26.0843 23.4765H26.9125C27.1321 23.4765 27.3427 23.3893 27.498 23.234C27.6533 23.0787 27.7406 22.868 27.7406 22.6484C27.7406 22.4288 27.6533 22.2181 27.498 22.0628C27.3427 21.9075 27.1321 21.8203 26.9125 21.8203H26.0843C25.8647 21.8203 25.6541 21.9075 25.4988 22.0628C25.3435 22.2181 25.2562 22.4288 25.2562 22.6484C25.2562 22.868 25.3435 23.0787 25.4988 23.234C25.6541 23.3893 25.8647 23.4765 26.0843 23.4765ZM26.0843 26.7922H26.9125C27.1321 26.7922 27.3427 26.705 27.498 26.5497C27.6533 26.3944 27.7406 26.1838 27.7406 25.9641C27.7406 25.7445 27.6533 25.5339 27.498 25.3785C27.3427 25.2232 27.1321 25.136 26.9125 25.136H26.0843C25.8647 25.136 25.6541 25.2232 25.4988 25.3785C25.3435 25.5339 25.2562 25.7445 25.2562 25.9641C25.2562 26.1838 25.3435 26.3944 25.4988 26.5497C25.6541 26.705 25.8647 26.7922 26.0843 26.7922Z" fill="url(#paint0_linear_1702_14420)"/>
<path d="M38.5082 31.7566C38.3995 31.7565 38.2917 31.7779 38.1912 31.8195C38.0907 31.8611 37.9994 31.9221 37.9225 31.999C37.8456 32.0759 37.7846 32.1672 37.743 32.2677C37.7014 32.3682 37.68 32.4759 37.6801 32.5847V34.2409H36.0218V25.1316C36.0156 24.687 35.8334 24.263 35.5152 23.9525C35.1969 23.6421 34.7685 23.4705 34.3239 23.4753H32.2948V20.1173C32.5145 20.1173 32.7252 20.0301 32.8806 19.8748C33.0359 19.7195 33.1233 19.5089 33.1234 19.2892V17.6329C33.1225 16.9743 32.8605 16.3429 32.3948 15.8772C31.9291 15.4114 31.2976 15.1494 30.639 15.1486H22.3573C21.6988 15.1494 21.0674 15.4115 20.6017 15.8772C20.1361 16.3429 19.8742 16.9743 19.8734 17.6329V19.2892C19.8734 19.3979 19.8948 19.5056 19.9364 19.6061C19.978 19.7066 20.039 19.7979 20.1159 19.8748C20.1928 19.9517 20.2841 20.0127 20.3846 20.0543C20.4851 20.0959 20.5928 20.1173 20.7015 20.1173V23.4753H18.6729C18.2282 23.4702 17.7996 23.6417 17.4813 23.9522C17.163 24.2628 16.9809 24.6869 16.9749 25.1316V34.2409H15.3183V32.5847C15.3183 32.3651 15.2311 32.1545 15.0758 31.9993C14.9205 31.844 14.7099 31.7568 14.4904 31.7568C14.2708 31.7568 14.0602 31.844 13.9049 31.9993C13.7497 32.1545 13.6624 32.3651 13.6624 32.5847V35.065L13.6616 35.0691C13.6616 35.2886 13.7488 35.4992 13.904 35.6545C14.0593 35.8098 14.2698 35.8971 14.4894 35.8972H38.5082C38.7277 35.897 38.9382 35.8097 39.0933 35.6544C39.2484 35.4991 39.3356 35.2886 39.3355 35.0691V32.5847C39.3356 32.3652 39.2484 32.1547 39.0933 31.9994C38.9382 31.8441 38.7277 31.7568 38.5082 31.7566ZM20.7015 34.2409H18.6304L18.6271 25.1475C18.6332 25.1417 18.6404 25.1373 18.6483 25.1345C18.6561 25.1318 18.6645 25.1308 18.6729 25.1316H20.7015V34.2409ZM27.3261 34.2409H25.6703V30.9284H27.3261V34.2409ZM30.639 34.2409H28.9828V30.1003C28.9827 29.8807 28.8954 29.6701 28.7401 29.5148C28.5848 29.3595 28.3742 29.2723 28.1546 29.2722H24.8426C24.7338 29.2722 24.626 29.2935 24.5255 29.3351C24.425 29.3767 24.3337 29.4377 24.2567 29.5146C24.1798 29.5915 24.1188 29.6828 24.0771 29.7833C24.0355 29.8838 24.014 29.9915 24.014 30.1003V34.2409H22.3573V20.1173H30.639V34.2409ZM31.4676 18.4611H21.5296V17.6329C21.5297 17.4134 21.617 17.2029 21.7721 17.0476C21.9273 16.8923 22.1378 16.805 22.3573 16.8048H30.639C30.8586 16.8052 31.069 16.8925 31.2243 17.0477C31.3796 17.203 31.4671 17.4134 31.4676 17.6329V18.4611ZM34.3656 34.2409H32.2948V25.1316H34.3239C34.3379 25.1328 34.3519 25.135 34.3656 25.1382V34.2409ZM48.8586 29.641C48.8585 29.1497 48.7128 28.6695 48.4398 28.261C48.1669 27.8525 47.7789 27.5342 47.325 27.3462C46.8711 27.1582 46.3717 27.1091 45.8899 27.205C45.408 27.3008 44.9655 27.5374 44.6181 27.8848C44.2707 28.2322 44.0342 28.6748 43.9383 29.1566C43.8425 29.6385 43.8917 30.1379 44.0797 30.5918C44.2677 31.0457 44.5861 31.4336 44.9946 31.7065C45.4031 31.9794 45.8833 32.1251 46.3746 32.1251C47.0332 32.1245 47.6647 31.8626 48.1305 31.3969C48.5962 30.9311 48.858 30.2996 48.8586 29.641ZM45.5469 29.641C45.5469 29.4772 45.5954 29.3171 45.6864 29.181C45.7774 29.0448 45.9067 28.9387 46.058 28.876C46.2093 28.8134 46.3758 28.797 46.5364 28.829C46.697 28.8609 46.8445 28.9398 46.9603 29.0556C47.0761 29.1714 47.1549 29.3189 47.1868 29.4796C47.2188 29.6402 47.2023 29.8067 47.1396 29.9579C47.0769 30.1092 46.9708 30.2385 46.8346 30.3294C46.6984 30.4204 46.5384 30.4689 46.3746 30.4689C46.1552 30.4684 45.9449 30.381 45.7897 30.2259C45.6346 30.0707 45.5473 29.8604 45.5469 29.641ZM52.7643 23.2118C51.0661 21.524 48.7691 20.5766 46.3748 20.5765C43.9805 20.5763 41.6834 21.5234 39.9849 23.2111C39.9082 23.2888 39.8476 23.381 39.8066 23.4822C39.7656 23.5835 39.7451 23.6919 39.7462 23.8011C39.7473 23.9103 39.7699 24.0183 39.8129 24.1187C39.8559 24.2191 39.9183 24.3101 39.9966 24.3863C40.0749 24.4625 40.1675 24.5224 40.269 24.5627C40.3706 24.603 40.4791 24.6227 40.5883 24.6209C40.6976 24.619 40.8053 24.5956 40.9055 24.5519C41.0056 24.5082 41.0961 24.4451 41.1717 24.3663C42.5583 22.999 44.4274 22.2326 46.3748 22.2327C48.3221 22.2329 50.1911 22.9996 51.5775 24.3671C51.732 24.5227 51.9414 24.6114 52.1606 24.6144C52.3798 24.6173 52.5915 24.5342 52.7501 24.3829C52.828 24.3069 52.8901 24.2164 52.9329 24.1164C52.9758 24.0165 52.9985 23.9091 52.9998 23.8003C53.0011 23.6916 52.981 23.5836 52.9406 23.4826C52.9002 23.3817 52.8403 23.2897 52.7643 23.2118Z" fill="url(#paint1_linear_1702_14420)"/>
<path d="M46.3746 23.9553C45.527 23.9349 44.6852 24.0993 43.9075 24.437C43.1298 24.7747 42.435 25.2777 41.8713 25.911C41.802 25.9949 41.75 26.0916 41.7181 26.1956C41.6862 26.2996 41.6752 26.4089 41.6855 26.5172C41.6959 26.6255 41.7275 26.7306 41.7785 26.8267C41.8295 26.9228 41.899 27.0079 41.9829 27.0771C42.0668 27.1464 42.1635 27.1984 42.2675 27.2303C42.3715 27.2622 42.4808 27.2732 42.5891 27.2629C42.6974 27.2525 42.8026 27.2209 42.8986 27.1699C42.9947 27.1189 43.0798 27.0494 43.1491 26.9655C43.5698 26.5367 44.0718 26.1961 44.6258 25.9636C45.1797 25.7311 45.7745 25.6114 46.3753 25.6115C46.976 25.6116 47.5708 25.7315 48.1246 25.9642C48.6785 26.1969 49.1804 26.5377 49.601 26.9667C49.6702 27.0506 49.7553 27.1201 49.8513 27.1711C49.9474 27.2221 50.0525 27.2537 50.1608 27.2641C50.2691 27.2745 50.3783 27.2635 50.4823 27.2316C50.5863 27.1998 50.6831 27.1478 50.767 27.0785C50.8509 27.0093 50.9203 26.9243 50.9713 26.8282C51.0224 26.7322 51.054 26.627 51.0644 26.5187C51.0747 26.4104 51.0637 26.3012 51.0318 26.1972C51 26.0932 50.948 25.9965 50.8788 25.9126C50.3151 25.2789 49.6202 24.7756 48.8424 24.4376C48.0645 24.0996 47.2225 23.935 46.3746 23.9553ZM8.56431 30.6251C9.462 29.0342 9.06367 27.4889 8.68642 26.4657C7.82755 24.3654 6.81205 22.3325 5.64848 20.3844C5.54291 20.1846 5.38483 20.0173 5.19126 19.9007C4.99769 19.7841 4.77597 19.7224 4.54998 19.7224C4.32398 19.7225 4.10228 19.7841 3.90873 19.9008C3.71518 20.0175 3.55713 20.1847 3.45159 20.3846C2.26912 22.3599 1.24141 24.4237 0.377676 26.5577C-0.21671 28.2087 -0.109178 29.666 0.696298 30.8898C1.13333 31.5464 1.73094 32.0804 2.43237 32.4411C3.13381 32.8017 3.91579 32.9771 4.70408 32.9506C5.49237 32.9241 6.2608 32.6966 6.93641 32.2895C7.61202 31.8825 8.17239 31.3096 8.56431 30.6251ZM2.07922 29.9786C1.56243 29.1929 1.51756 28.2841 1.93687 27.1184C2.67679 25.2837 3.55012 23.5057 4.54985 21.7986C5.53342 23.4817 6.3966 25.2323 7.1329 27.0373C7.55749 28.1897 7.55421 29.0451 7.12114 29.8108C6.86886 30.2481 6.50927 30.6139 6.07634 30.8737C5.6434 31.1334 5.15141 31.2786 4.6468 31.2954C4.1422 31.3121 3.64164 31.2001 3.19239 30.9697C2.74314 30.7393 2.36003 30.3982 2.07922 29.9786ZM36.3639 42.7068H35.9175C35.8308 42.0716 35.5176 41.4891 35.0356 41.0664C34.5536 40.6437 33.9351 40.4093 33.294 40.4064H32.3858C31.9236 40.4082 31.4811 40.5933 31.1552 40.9211C30.8294 41.249 30.647 41.6926 30.6479 42.1548V44.547H22.3517V42.1548C22.3524 41.6928 22.1699 41.2493 21.8442 40.9216C21.5186 40.5938 21.0762 40.4086 20.6142 40.4064H19.7044C19.0634 40.4092 18.445 40.6436 17.9632 41.0663C17.4813 41.489 17.1684 42.0716 17.0821 42.7068H16.6361C16.174 42.7086 15.7314 42.8937 15.4055 43.2214C15.0797 43.5491 14.8971 43.9926 14.8978 44.4548V46.2955C14.8971 46.7576 15.0797 47.2012 15.4055 47.5288C15.7314 47.8565 16.174 48.0416 16.6361 48.0435H17.0821C17.1684 48.6786 17.4813 49.2612 17.9632 49.6839C18.445 50.1066 19.0634 50.341 19.7044 50.3439H20.6142C21.0762 50.3417 21.5186 50.1564 21.8442 49.8287C22.1699 49.5009 22.3524 49.0574 22.3517 48.5954V46.2032H30.6479V48.5954C30.647 49.0576 30.8294 49.5013 31.1552 49.8291C31.4811 50.1569 31.9236 50.342 32.3858 50.3439H33.294C33.9351 50.3409 34.5536 50.1065 35.0356 49.6839C35.5176 49.2612 35.8308 48.6787 35.9175 48.0435H36.3639C36.8259 48.0414 37.2682 47.8563 37.5938 47.5286C37.9195 47.2009 38.1019 46.7574 38.101 46.2955V44.4548C38.1019 43.9928 37.9195 43.5494 37.5938 43.2217C37.2682 42.894 36.8259 42.7088 36.3639 42.7068ZM20.6946 48.5954C20.6961 48.6183 20.6884 48.6408 20.6734 48.658C20.6583 48.6753 20.637 48.6859 20.6142 48.6876H19.7044C19.4388 48.6844 19.1854 48.5761 18.9996 48.3864C18.8137 48.1967 18.7106 47.9411 18.7129 47.6755V47.2153C18.7128 46.9958 18.6256 46.7852 18.4704 46.63C18.3152 46.4747 18.1047 46.3874 17.8851 46.3872H16.6361C16.6131 46.3858 16.5915 46.3754 16.5762 46.3582C16.5608 46.341 16.5528 46.3185 16.554 46.2955V44.4548C16.5528 44.4318 16.5608 44.4092 16.5762 44.392C16.5915 44.3748 16.6131 44.3644 16.6361 44.363H17.8851C18.1047 44.3629 18.3152 44.2756 18.4704 44.1203C18.6256 43.965 18.7128 43.7545 18.7129 43.5349V43.0747C18.7106 42.8092 18.8137 42.5536 18.9996 42.3638C19.1854 42.1741 19.4388 42.0658 19.7044 42.0626H20.6142C20.637 42.0643 20.6583 42.0749 20.6734 42.0922C20.6884 42.1095 20.6961 42.132 20.6946 42.1548V48.5954ZM36.4444 46.2955C36.4458 46.3183 36.4381 46.3407 36.423 46.3579C36.408 46.3751 36.3867 46.3856 36.3639 46.3872H35.1145C35.0057 46.3872 34.898 46.4086 34.7975 46.4502C34.697 46.4918 34.6057 46.5528 34.5288 46.6297C34.4519 46.7066 34.3909 46.7979 34.3493 46.8984C34.3077 46.9989 34.2863 47.1066 34.2863 47.2153V47.6755C34.2887 47.9412 34.1855 48.197 33.9995 48.3868C33.8134 48.5765 33.5597 48.6847 33.294 48.6876H32.3858C32.3628 48.6861 32.3413 48.6756 32.326 48.6583C32.3107 48.6411 32.3029 48.6184 32.3042 48.5954V42.1548C32.3029 42.1318 32.3107 42.1092 32.326 42.0919C32.3413 42.0746 32.3628 42.0641 32.3858 42.0626H33.294C33.5597 42.0655 33.8134 42.1737 33.9995 42.3635C34.1855 42.5532 34.2887 42.809 34.2863 43.0747V43.5349C34.2863 43.6437 34.3077 43.7514 34.3493 43.8518C34.3909 43.9523 34.4519 44.0436 34.5288 44.1205C34.6057 44.1974 34.697 44.2584 34.7975 44.3001C34.898 44.3417 35.0057 44.3631 35.1145 44.363H36.3639C36.3867 44.3646 36.408 44.3752 36.423 44.3924C36.4381 44.4095 36.4458 44.432 36.4444 44.4548V46.2955ZM16.9325 11.422H36.0635C36.9362 11.4154 37.7707 11.0629 38.3838 10.4419C38.997 9.82089 39.3388 8.98201 39.3343 8.10929V3.14095C39.3373 2.48596 39.0804 1.85652 38.6198 1.39073C38.1593 0.924947 37.5329 0.660847 36.8779 0.656372H16.1189C15.4639 0.660848 14.8375 0.924948 14.3769 1.39073C13.9164 1.85652 13.6595 2.48596 13.6625 3.14095V8.10929C13.6578 8.98191 13.9995 9.82074 14.6125 10.4418C15.2256 11.0628 16.0599 11.4153 16.9325 11.422ZM33.9511 9.76575H19.0453V8.1095H33.9511V9.76575ZM15.3183 3.14095C15.315 2.92505 15.3974 2.71663 15.5475 2.56137C15.6975 2.40611 15.903 2.31666 16.1189 2.31262H36.8779C37.0938 2.31666 37.2993 2.40611 37.4493 2.56137C37.5994 2.71663 37.6818 2.92505 37.6785 3.14095V8.10929C37.6835 8.54297 37.5163 8.96092 37.2135 9.27145C36.9107 9.58199 36.4972 9.75975 36.0635 9.76575H35.6074V7.28137C35.6075 7.17263 35.5861 7.06492 35.5446 6.96443C35.503 6.86393 35.4421 6.77262 35.3652 6.6957C35.2883 6.61879 35.197 6.55778 35.0966 6.51618C34.9961 6.47458 34.8884 6.45319 34.7796 6.45325H18.2176C17.9979 6.45326 17.7873 6.54051 17.632 6.69581C17.4767 6.85111 17.3894 7.06174 17.3894 7.28137V9.76575H16.9325C16.499 9.75945 16.0857 9.58157 15.7831 9.27107C15.4805 8.96058 15.3134 8.5428 15.3183 8.10929V3.14095Z" fill="url(#paint2_linear_1702_14420)"/>
<path d="M34.3655 4.797H35.1933C35.4129 4.797 35.6235 4.70975 35.7788 4.55444C35.9341 4.39914 36.0214 4.1885 36.0214 3.96887C36.0214 3.74924 35.9341 3.5386 35.7788 3.3833C35.6235 3.228 35.4129 3.14075 35.1933 3.14075H34.3655C34.1459 3.14075 33.9353 3.228 33.78 3.3833C33.6247 3.5386 33.5374 3.74924 33.5374 3.96887C33.5374 4.1885 33.6247 4.39914 33.78 4.55444C33.9353 4.70975 34.1459 4.797 34.3655 4.797Z" fill="url(#paint3_linear_1702_14420)"/>
<path d="M18.2175 4.797C18.6749 4.797 19.0457 4.42623 19.0457 3.96887C19.0457 3.51151 18.6749 3.14075 18.2175 3.14075C17.7602 3.14075 17.3894 3.51151 17.3894 3.96887C17.3894 4.42623 17.7602 4.797 18.2175 4.797Z" fill="url(#paint4_linear_1702_14420)"/>
<defs>
<linearGradient id="paint0_linear_1702_14420" x1="2.48523" y1="9.61134" x2="53.616" y2="18.7395" gradientUnits="userSpaceOnUse">
<stop offset="0.158241" stop-color="#002D31"/>
<stop offset="0.32869" stop-color="#005961"/>
<stop offset="0.509791" stop-color="#00818C"/>
<stop offset="0.786145" stop-color="#005961"/>
<stop offset="0.988044" stop-color="#002D31"/>
</linearGradient>
<linearGradient id="paint1_linear_1702_14420" x1="13.6616" y1="15.5237" x2="54.0895" y2="26.1417" gradientUnits="userSpaceOnUse">
<stop offset="0.158241" stop-color="#002D31"/>
<stop offset="0.32869" stop-color="#005961"/>
<stop offset="0.509791" stop-color="#00818C"/>
<stop offset="0.786145" stop-color="#005961"/>
<stop offset="0.988044" stop-color="#002D31"/>
</linearGradient>
<linearGradient id="paint2_linear_1702_14420" x1="-0.000121949" y1="1.55466" x2="54.9883" y2="9.38374" gradientUnits="userSpaceOnUse">
<stop offset="0.158241" stop-color="#002D31"/>
<stop offset="0.32869" stop-color="#005961"/>
<stop offset="0.509791" stop-color="#00818C"/>
<stop offset="0.786145" stop-color="#005961"/>
<stop offset="0.988044" stop-color="#002D31"/>
</linearGradient>
<linearGradient id="paint3_linear_1702_14420" x1="33.5374" y1="3.17069" x2="36.1534" y2="3.71417" gradientUnits="userSpaceOnUse">
<stop offset="0.158241" stop-color="#002D31"/>
<stop offset="0.32869" stop-color="#005961"/>
<stop offset="0.509791" stop-color="#00818C"/>
<stop offset="0.786145" stop-color="#005961"/>
<stop offset="0.988044" stop-color="#002D31"/>
</linearGradient>
<linearGradient id="paint4_linear_1702_14420" x1="17.3894" y1="3.17069" x2="19.1747" y2="3.418" gradientUnits="userSpaceOnUse">
<stop offset="0.158241" stop-color="#002D31"/>
<stop offset="0.32869" stop-color="#005961"/>
<stop offset="0.509791" stop-color="#00818C"/>
<stop offset="0.786145" stop-color="#005961"/>
<stop offset="0.988044" stop-color="#002D31"/>
</linearGradient>
</defs>
</svg>
