<svg width="103" height="53" viewBox="0 0 103 53" fill="none" xmlns="http://www.w3.org/2000/svg">
<g clip-path="url(#clip0_1702_12862)">
<path d="M85.7447 11.5178H87.85L94.1359 25.985C94.0633 26.3101 94.0996 26.1295 93.9181 26.9965L93.8455 27.3216L93.8092 27.6467L93.7366 27.9718L93.3373 29.5251C92.8654 31.5118 92.1757 32.9267 91.7038 32.8544C91.5949 32.8544 91.486 32.7099 91.486 32.5654V32.132C91.4497 31.2289 90.8326 30.6509 89.8889 30.6509C89.054 30.6509 88.328 31.4095 88.328 32.2764C88.328 33.3601 89.1266 34.1187 90.2882 34.1187C92.0668 34.1187 93.1619 32.7099 93.9242 29.3445L94.2871 27.7912C94.5775 26.4185 94.8316 25.5455 95.1583 24.7508L99.6655 13.7875C100.355 12.1981 100.283 12.3426 100.392 12.162C100.718 11.7285 101.19 11.5118 101.771 11.5118H102.896V10.8977H95.8843V11.5118H97.3363C98.6068 11.5118 99.3328 11.8007 99.3328 12.3787C99.3328 12.8483 99.0787 13.7514 98.6068 14.8772L95.6968 22.0055L91.1533 11.5178H93.7366V10.9037H85.7386V11.5178H85.7447ZM83.6998 22.5533C83.119 23.926 82.3204 24.6184 81.2677 24.6184C80.1061 24.6184 79.6705 24.0404 79.6705 22.5533V11.5178H84.2866V10.9037H79.6705V6.05719H79.1624V6.31005C79.1624 7.14088 78.5453 8.54967 77.8193 9.53102C77.1296 10.4702 76.1495 10.9037 74.6552 10.9037H73.7114V11.5178H76.694V22.0055C76.694 24.0645 78.1097 25.2987 80.5115 25.2987C82.3991 25.2987 83.4941 24.5401 84.2927 22.6918L83.7119 22.5473L83.6998 22.5533ZM61.9624 15.8285C62.035 13.8417 62.1076 13.2216 62.3617 12.6075C62.8699 11.3071 64.0678 10.6207 65.7436 10.6207C68.212 10.6207 69.1255 11.9212 69.1255 15.4672C69.1255 15.7923 69.0529 15.8285 68.581 15.8285H61.9685H61.9624ZM72.3199 19.9886C71.2309 23.2818 69.2284 24.799 66.0703 24.799C64.5458 24.799 63.3781 24.2933 62.6521 23.3541C62.0713 22.5594 61.8898 21.584 61.8898 19.1578C61.8898 18.7966 61.8898 18.3992 61.9624 16.4425H72.1747C72.5014 16.4425 72.6103 16.4064 72.6103 16.2258C72.574 15.4672 71.7028 13.6189 70.9768 12.7159C69.6337 11.0903 67.6675 10.109 65.7799 10.109C62.035 10.109 58.5805 13.8718 58.5805 17.9597C58.5805 22.0476 62.035 25.377 66.1792 25.377C69.5248 25.377 72.1021 23.3541 72.9007 20.097L72.3199 19.9886ZM52.9481 0.307617C52.0043 0.307617 51.242 1.0662 51.242 2.0054C51.242 2.94459 52.0043 3.66705 52.9481 3.66705C53.8918 3.66705 54.6178 2.90847 54.6178 2.0054C54.6178 1.10232 53.8555 0.307617 52.9481 0.307617ZM51.4235 11.5178V24.2873H48.6224V24.9013H57.1649V24.2873H54.3637V9.82C53.8918 10.687 53.4563 10.9037 52.1132 10.9037H48.6587V11.5178H51.4235ZM46.8558 20.0187C46.275 23.0952 44.1636 24.8291 41.0418 24.8291C37.9201 24.8291 36.6798 23.3119 36.6798 18.935V17.3095C36.6798 12.2824 37.7688 10.8013 41.4048 10.8013C43.2924 10.8013 44.3148 11.1264 44.3148 11.6683C44.3148 11.8128 44.2785 11.9212 44.2059 11.9934C43.5888 12.6075 43.4436 12.9326 43.4436 13.5106C43.4436 14.4136 44.2059 15.1722 45.0408 15.1722C45.9483 15.1722 46.638 14.4498 46.638 13.5467C46.638 11.6683 44.4237 10.2535 41.5137 10.2535C37.188 10.2535 33.3342 14.1969 33.3342 18.6099C33.3342 22.3727 36.825 25.377 41.2233 25.377C44.6052 25.377 46.9284 23.3179 47.364 20.0247H46.8558V20.0187ZM27.1815 20.3077C27.1815 23.637 26.0199 24.8291 22.7469 24.8291C19.4739 24.8291 18.1671 23.4564 18.1671 20.2355V15.2083C18.1671 12.0957 19.6554 10.6508 22.8558 10.6508C24.3077 10.6508 25.5117 11.0843 26.3103 11.8429C27.0363 12.5653 27.1815 13.1794 27.1815 15.2806V20.3077ZM22.8558 10.1451C18.8931 10.1451 14.7852 13.9802 14.7852 17.7068C14.7852 21.6503 18.6027 25.3408 22.6743 25.3408C26.7459 25.3408 30.5271 21.7948 30.5271 17.6707C30.5271 13.7634 26.8185 10.1451 22.8558 10.1451ZM0.846161 19.8381V25.0458H1.31805V24.793C1.31805 24.1789 1.46325 23.8538 1.78995 23.8538C2.00775 23.8538 2.37074 23.9983 2.77004 24.215C4.04052 25.0097 5.17185 25.3348 6.47864 25.3348C9.82424 25.3348 12.1474 23.2036 12.1474 20.1271C12.1474 17.448 10.6591 15.8586 8.14841 15.8586H5.82524C3.50207 15.8586 2.08034 14.9555 2.08034 13.3962C2.08034 11.7345 3.56862 10.6087 5.82524 10.6087C8.62636 10.6087 10.2235 11.873 10.5502 14.3715H11.0947L10.9495 10.1752H10.405V10.7171C10.405 11.0422 10.2961 11.2589 10.1146 11.2589C10.0783 11.2589 10.0057 11.2228 9.89684 11.1867C8.51746 10.4642 7.24092 10.103 5.97044 10.103C2.95153 10.109 0.991359 11.9212 0.991359 14.7026C0.991359 17.0566 2.51594 18.6822 4.69996 18.6822H7.21068C9.46125 18.6822 10.6652 19.6575 10.6652 21.4697C10.6652 23.4925 9.1406 24.799 6.70248 24.799C3.90137 24.799 1.8323 22.8845 1.3241 19.8441H0.852211L0.846161 19.8381Z" fill="black"/>
<path d="M52.9602 4.02828C53.9947 4.02828 54.8296 3.19745 54.8296 2.16795C54.8296 1.13845 53.9947 0.307617 52.9602 0.307617C51.9256 0.307617 51.0907 1.13845 51.0907 2.16795C51.0907 3.19745 51.9256 4.02828 52.9602 4.02828Z" fill="#A72142"/>
<path d="M77.3474 33.3841C77.3897 32.1439 77.4381 31.7586 77.5954 31.3793C77.91 30.5665 78.6602 30.1391 79.7008 30.1391C81.2435 30.1391 81.8062 30.9518 81.8062 33.1613C81.8062 33.366 81.7638 33.3901 81.4674 33.3901H77.3474V33.3841ZM83.8026 35.9729C83.125 38.0259 81.8788 38.9711 79.9065 38.9711C78.9567 38.9711 78.2307 38.6581 77.7769 38.0681C77.4139 37.5744 77.299 36.9663 77.299 35.4552C77.299 35.2324 77.299 34.9795 77.3474 33.7634H83.7119C83.9176 33.7634 83.9841 33.7393 83.9841 33.6249C83.9599 33.1493 83.4215 32.0054 82.9678 31.4395C82.1268 30.428 80.9047 29.814 79.731 29.814C77.4018 29.814 75.2481 32.1559 75.2481 34.7026C75.2481 37.2493 77.4018 39.3203 79.9791 39.3203C82.0603 39.3203 83.6695 38.056 84.1717 36.0331L83.8087 35.9669L83.8026 35.9729ZM66.4999 35.8826V39.1277H66.7963V38.9711C66.7963 38.5858 66.8871 38.3871 67.0928 38.3871C67.2259 38.3871 67.4558 38.4774 67.7038 38.6099C68.4964 39.1036 69.1981 39.3083 70.0149 39.3083C72.0961 39.3083 73.548 37.9777 73.548 36.0632C73.548 34.3956 72.6224 33.4022 71.0555 33.4022H69.6035C68.1515 33.4022 67.2682 32.8362 67.2682 31.873C67.2682 30.8374 68.1999 30.1391 69.6035 30.1391C71.3459 30.1391 72.3441 30.9277 72.5498 32.481H72.8886L72.7978 29.8681H72.459V30.2053C72.459 30.41 72.3925 30.5424 72.2775 30.5424C72.2533 30.5424 72.211 30.5184 72.1445 30.5003C71.2854 30.0488 70.4928 29.826 69.7003 29.826C67.8188 29.826 66.5967 30.9518 66.5967 32.6857C66.5967 34.1487 67.5465 35.1662 68.9077 35.1662H70.4686C71.8722 35.1662 72.6224 35.7742 72.6224 36.9001C72.6224 38.1644 71.6726 38.9711 70.154 38.9711C68.4117 38.9711 67.117 37.7791 66.8024 35.8826H66.5059H66.4999ZM63.245 38.652V29.7297C62.8578 30.2053 62.634 30.3137 62.1802 30.3137H59.6877V30.699H61.43V35.5214C61.43 37.3035 59.7784 38.923 57.9634 38.923C56.8503 38.923 56.4207 38.4052 56.4207 37.0325V29.7297C56.0819 30.2233 55.9246 30.3137 55.2894 30.3137H52.821V30.699H54.5634V36.3582C54.5634 37.4178 54.6965 37.8874 55.1744 38.3871C55.7613 38.9952 56.6688 39.3324 57.7819 39.3324C59.5243 39.3324 60.6799 38.5678 61.43 36.9422V39.0374H64.9632V38.652H63.245ZM50.0562 36.1716C50.0562 38.2426 49.3302 38.9892 47.2914 38.9892C45.2526 38.9892 44.4358 38.1343 44.4358 36.1295V32.9988C44.4358 31.0602 45.3675 30.1571 47.3579 30.1571C48.2654 30.1571 49.0096 30.428 49.5117 30.8976C49.9655 31.3492 50.0562 31.7345 50.0562 33.0409V36.1716ZM47.364 29.838C44.8956 29.838 42.3365 32.2282 42.3365 34.5461C42.3365 37.0024 44.7141 39.3023 47.249 39.3023C49.784 39.3023 52.1434 37.0927 52.1434 34.528C52.1434 32.0957 49.8324 29.838 47.364 29.838ZM33.0983 23.2095C32.826 23.7272 32.5114 23.8657 31.6947 23.8657H29.5228V24.251H31.2652V38.652H29.5228V39.0374H34.8225V38.652H33.1043V32.8603C33.7154 31.3251 35.0766 30.2655 36.4318 30.2655C37.4058 30.2655 38.0653 30.8976 38.0653 31.8429V38.646H36.2745V39.0313H41.665V38.646H39.9226V33.2396C39.9226 31.7947 39.8318 31.3492 39.4265 30.8736C38.8578 30.2655 37.9322 29.9043 36.8674 29.9043C35.125 29.9043 34.0118 30.5364 33.1104 32.0476V23.2155L33.0983 23.2095Z" fill="black"/>
<path d="M63.3479 51.3736C63.7774 51.3736 64.1283 51.0244 64.1283 50.597C64.1283 50.1695 63.7774 49.8203 63.3479 49.8203C62.9183 49.8203 62.5674 50.1695 62.5674 50.597C62.5674 51.0244 62.9183 51.3736 63.3479 51.3736Z" fill="#A72142"/>
<path d="M91.0505 52.4089H91.4377V48.9712H91.0505V52.4089ZM85.6297 51.5058L86.4223 49.7358L87.2148 51.5058H85.6297ZM87.6201 52.4089H88.0436L86.4465 48.917H86.4041L84.8069 52.4089H85.2304L85.4845 51.843H87.3721L87.6262 52.4089H87.6201ZM80.9894 52.0296H80.1303V50.7352H80.9713C81.425 50.7352 81.7336 51.0121 81.7336 51.3372C81.7336 51.7346 81.3827 52.0356 80.9894 52.0356M80.7051 49.3505C81.0318 49.3505 81.3101 49.5792 81.3101 49.8743C81.3101 50.1693 81.0802 50.392 80.7051 50.392H80.1303V49.3505H80.7051ZM81.2254 50.4763C81.4008 50.4763 81.6731 50.2054 81.6731 49.8321C81.6731 49.3806 81.2556 48.9772 80.6809 48.9772H79.7371V52.4149H81.0197C81.6791 52.4149 82.1147 51.9092 82.1147 51.3673C82.1147 50.8255 81.6731 50.4823 81.2314 50.4823M75.1815 52.4751C75.9196 52.4751 76.4641 51.8851 76.4641 51.0844V48.9832H76.0709V51.0844C76.0709 51.6623 75.6958 52.0838 75.1815 52.0838C74.6673 52.0838 74.2922 51.6623 74.2922 51.0844V48.9832H73.8989V51.0844C73.8989 51.8851 74.4434 52.4751 75.1815 52.4751ZM69.0408 52.0356H68.4661V49.3685H69.0348C69.8697 49.3685 70.4081 49.8923 70.4081 50.7051C70.4081 51.5178 69.8757 52.0356 69.0408 52.0356ZM69.0408 48.9832H68.0789V52.4269H69.0408C70.1177 52.4269 70.8014 51.7587 70.8014 50.7111C70.8014 49.6635 70.1117 48.9892 69.0408 48.9892M57.7577 48.9832V51.554L55.3922 48.9351H55.368V52.433H55.7613V49.8622L58.1328 52.4811H58.151V48.9772H57.7577V48.9832ZM49.3786 52.451H49.4391L50.3345 50.1693L51.2299 52.451H51.2904L52.3612 48.9892H51.9377L51.1875 51.4998L50.3466 49.2662H50.3163L49.4694 51.4998L48.7192 48.9892H48.3017L49.3726 52.451H49.3786ZM43.9337 52.0838C43.1774 52.0838 42.5543 51.4697 42.5543 50.7111C42.5543 49.9525 43.1714 49.3324 43.9337 49.3324C44.696 49.3324 45.3191 49.9525 45.3191 50.7111C45.3191 51.4697 44.696 52.0838 43.9337 52.0838ZM43.9337 52.4751C44.9138 52.4751 45.7124 51.6804 45.7124 50.7111C45.7124 49.7418 44.9138 48.9411 43.9337 48.9411C42.9536 48.9411 42.1611 49.7358 42.1611 50.7111C42.1611 51.6864 42.9596 52.4751 43.9337 52.4751ZM39.4507 48.9892H37.0549V49.3746H38.0592V52.4269H38.4525V49.3746H39.4567V48.9892H39.4507ZM33.6004 48.9772V51.548L31.2349 48.929H31.2107V52.4269H31.6039V49.8562L33.9755 52.4751H33.9937V48.9712H33.6004V48.9772ZM25.2213 52.445H25.2818L26.1772 50.1632L27.0726 52.445H27.1331L28.2039 48.9832H27.7864L27.0363 51.4938L26.1953 49.2602H26.1651L25.3181 51.4938L24.5679 48.9832H24.1504L25.2213 52.445ZM19.7764 52.0778C19.0201 52.0778 18.397 51.4637 18.397 50.7051C18.397 49.9465 19.0141 49.3264 19.7764 49.3264C20.5386 49.3264 21.1618 49.9465 21.1618 50.7051C21.1618 51.4637 20.5386 52.0778 19.7764 52.0778ZM19.7764 52.4691C20.7564 52.4691 21.555 51.6744 21.555 50.7051C21.555 49.7358 20.7564 48.9351 19.7764 48.9351C18.7963 48.9351 18.0037 49.7298 18.0037 50.7051C18.0037 51.6804 18.8023 52.4691 19.7764 52.4691ZM13.2908 52.0356H12.7161V49.3685H13.2848C14.1197 49.3685 14.6581 49.8923 14.6581 50.7051C14.6581 51.5178 14.1257 52.0356 13.2908 52.0356ZM13.2908 48.9832H12.3289V52.4269H13.2908C14.3677 52.4269 15.0514 51.7587 15.0514 50.7111C15.0514 49.6635 14.3677 48.9892 13.2908 48.9892" fill="black"/>
</g>
<defs>
<clipPath id="clip0_1702_12862">
<rect width="102.056" height="52.1495" fill="white" transform="translate(0.846161 0.307617)"/>
</clipPath>
</defs>
</svg>
