<svg width="55" height="25" viewBox="0 0 55 25" fill="none" xmlns="http://www.w3.org/2000/svg">
<g clip-path="url(#clip0_1713_14657)">
<path d="M18.794 13.5192C18.6688 13.5297 18.5489 13.5402 18.4289 13.556C15.9311 13.8028 14.3771 14.0497 14.3771 14.0497C14.3771 14.0497 15.9311 13.7976 18.4289 13.556C18.5489 13.5455 18.6688 13.5297 18.794 13.5192ZM41.2852 14.0497C41.2852 14.0497 39.7834 13.8081 37.3585 13.5665C37.2125 13.5507 37.0612 13.535 36.91 13.5245C37.0612 13.5402 37.2125 13.556 37.3585 13.5665C39.7886 13.8081 41.2852 14.0497 41.2852 14.0497ZM11.1596 5.12634C12.4789 3.65575 14.6795 2.411 17.4486 1.52865C20.2176 0.646298 23.555 0.131592 27.1532 0.131592C31.9456 0.131592 36.2843 1.04546 39.4235 2.52655C41.2956 3.4089 42.7453 4.49609 43.6058 5.70407C42.7401 4.49084 41.2956 3.4089 39.4235 2.52655C36.279 1.04546 31.9404 0.131592 27.1532 0.131592C23.5603 0.131592 20.2176 0.646298 17.4486 1.52865C14.6795 2.411 12.4789 3.661 11.1596 5.12634ZM47.8662 10.7513V2.88369V10.7566V10.7513ZM39.6791 10.2051V8.30911L47.8662 2.87844V10.7513V2.88369L39.6791 8.31437V10.2104V10.2051ZM16.0249 10.1999V8.30911L7.83777 2.88369L16.0249 8.31437V10.2051V10.1999Z" fill="url(#paint0_angular_1713_14657)"/>
<path d="M18.794 13.5192C18.6688 13.5297 18.5489 13.5402 18.4289 13.556C15.9311 13.8028 14.3771 14.0497 14.3771 14.0497C14.3771 14.0497 15.9311 13.7976 18.4289 13.556C18.5489 13.5455 18.6688 13.5297 18.794 13.5192ZM41.2852 14.0497C41.2852 14.0497 39.7834 13.8081 37.3585 13.5665C37.2125 13.5507 37.0612 13.535 36.91 13.5245C37.0612 13.5402 37.2125 13.556 37.3585 13.5665C39.7886 13.8081 41.2852 14.0497 41.2852 14.0497ZM11.1596 5.12634C12.4789 3.65575 14.6795 2.411 17.4486 1.52865C20.2176 0.646298 23.555 0.131592 27.1532 0.131592C31.9456 0.131592 36.2843 1.04546 39.4235 2.52655C41.2956 3.4089 42.7453 4.49609 43.6058 5.70407C42.7401 4.49084 41.2956 3.4089 39.4235 2.52655C36.279 1.04546 31.9404 0.131592 27.1532 0.131592C23.5603 0.131592 20.2176 0.646298 17.4486 1.52865C14.6795 2.411 12.4789 3.661 11.1596 5.12634ZM47.8662 10.7513V2.88369V10.7566V10.7513ZM39.6791 10.2051V8.30911L47.8662 2.87844V10.7513V2.88369L39.6791 8.31437V10.2104V10.2051ZM16.0249 10.1999V8.30911L7.83777 2.88369L16.0249 8.31437V10.2051V10.1999Z" fill="#002D31" fill-opacity="0.2"/>
<path d="M18.794 13.5192C18.6688 13.5297 18.5489 13.5402 18.4289 13.556C15.9311 13.8028 14.3771 14.0497 14.3771 14.0497C14.3771 14.0497 15.9311 13.7976 18.4289 13.556C18.5489 13.5455 18.6688 13.5297 18.794 13.5192ZM41.2852 14.0497C41.2852 14.0497 39.7834 13.8081 37.3585 13.5665C37.2125 13.5507 37.0612 13.535 36.91 13.5245C37.0612 13.5402 37.2125 13.556 37.3585 13.5665C39.7886 13.8081 41.2852 14.0497 41.2852 14.0497ZM11.1596 5.12634C12.4789 3.65575 14.6795 2.411 17.4486 1.52865C20.2176 0.646298 23.555 0.131592 27.1532 0.131592C31.9456 0.131592 36.2843 1.04546 39.4235 2.52655C41.2956 3.4089 42.7453 4.49609 43.6058 5.70407C42.7401 4.49084 41.2956 3.4089 39.4235 2.52655C36.279 1.04546 31.9404 0.131592 27.1532 0.131592C23.5603 0.131592 20.2176 0.646298 17.4486 1.52865C14.6795 2.411 12.4789 3.661 11.1596 5.12634ZM47.8662 10.7513V2.88369V10.7566V10.7513ZM39.6791 10.2051V8.30911L47.8662 2.87844V10.7513V2.88369L39.6791 8.31437V10.2104V10.2051ZM16.0249 10.1999V8.30911L7.83777 2.88369L16.0249 8.31437V10.2051V10.1999Z" fill="black" fill-opacity="0.2"/>
<path d="M20.6921 24.869V12.2692M34.8815 24.869V12.2692M55 24.869H0M18.4289 13.556C18.5489 13.5402 18.6688 13.5297 18.794 13.5192C18.6688 13.5297 18.5489 13.5455 18.4289 13.556ZM18.4289 13.556C15.9311 13.8028 14.3771 14.0497 14.3771 14.0497M18.4289 13.556C15.9311 13.7976 14.3771 14.0497 14.3771 14.0497M14.3771 14.0497L11.8114 13.4404M10.9093 13.2251L2.62302 11.2555C2.62302 11.2555 13.9077 9.9005 27.8311 9.9005C41.7545 9.9005 53.0393 11.2555 53.0393 11.2555L44.5079 13.2829M43.6058 13.4982L41.2852 14.0497M41.2852 14.0497C41.2852 14.0497 39.7834 13.8081 37.3585 13.5665M41.2852 14.0497C41.2852 14.0497 39.7886 13.8081 37.3585 13.5665M37.3585 13.5665C37.2125 13.5507 37.0613 13.535 36.91 13.5245C37.0613 13.5402 37.2125 13.556 37.3585 13.5665ZM17.4486 1.52865C14.6795 2.411 12.4789 3.65575 11.1596 5.12634C12.4789 3.661 14.6795 2.411 17.4486 1.52865ZM17.4486 1.52865C20.2176 0.646298 23.555 0.131592 27.1532 0.131592M17.4486 1.52865C20.2176 0.646298 23.5603 0.131592 27.1532 0.131592M27.1532 0.131592C31.9456 0.131592 36.2843 1.04546 39.4235 2.52655M27.1532 0.131592C31.9404 0.131592 36.279 1.04546 39.4235 2.52655M39.4235 2.52655C41.2956 3.4089 42.7453 4.49609 43.6058 5.70407C42.7401 4.49084 41.2956 3.4089 39.4235 2.52655ZM47.8662 10.7513V2.88369M47.8662 10.7513V10.7566V2.88369M47.8662 10.7513V2.87844L39.6791 8.30911V10.2051V10.2104V8.31437L47.8662 2.88369M47.8662 2.88369H53.6755V24.869H47.8662V12.4898M47.8662 12.4845V24.8637H39.6791V13.8291M7.83777 10.7513V2.88369M7.83777 2.88369H2.02854V24.869H7.83777M7.83777 2.88369L16.0249 8.30911V10.1999V10.2051V8.31437L7.83777 2.88369ZM7.83777 24.869V12.495M7.83777 24.869H16.0249V13.8133M11.8114 24.869H10.9093V12.2692H11.8114V24.869ZM44.5079 24.869H43.6058V12.2692H44.5079V24.869ZM18.794 12.2639V24.8637H22.2879V16.5339H33.2545V24.8637H36.91V12.2639H18.794Z" stroke="url(#paint1_linear_1713_14657)" stroke-miterlimit="10"/>
</g>
<defs>
<radialGradient id="paint0_angular_1713_14657" cx="0" cy="0" r="1" gradientUnits="userSpaceOnUse" gradientTransform="translate(27.5 12.0912) rotate(32.9693) scale(18.6314 18.1657)">
<stop offset="0.0940427" stop-color="#248F99"/>
<stop offset="0.247062" stop-color="#00464D"/>
<stop offset="0.472333" stop-color="#248F99"/>
<stop offset="0.654785" stop-color="#00464D"/>
<stop offset="0.818154" stop-color="#008D99"/>
<stop offset="0.947734" stop-color="#04474D"/>
</radialGradient>
<linearGradient id="paint1_linear_1713_14657" x1="1.31094e-07" y1="0.578814" x2="55.1873" y2="17.5763" gradientUnits="userSpaceOnUse">
<stop offset="0.158241" stop-color="#002D31"/>
<stop offset="0.32869" stop-color="#005961"/>
<stop offset="0.509791" stop-color="#00818C"/>
<stop offset="0.786145" stop-color="#005961"/>
<stop offset="0.988044" stop-color="#002D31"/>
</linearGradient>
<clipPath id="clip0_1713_14657">
<rect width="55" height="25" fill="white" transform="translate(0 0.000244141)"/>
</clipPath>
</defs>
</svg>
