<svg width="31" height="30" viewBox="0 0 31 30" fill="none" xmlns="http://www.w3.org/2000/svg">
<path d="M3.23621 30H5.23621C5.51257 30 5.73621 29.7761 5.73621 29.5V26H17.7362V29.5C17.7362 29.7761 17.9598 30 18.2362 30H22.7362H25.7362H30.2362C30.5126 30 30.7362 29.7761 30.7362 29.5V22C30.7362 21.8674 30.6835 21.7402 30.5897 21.6465L29.7362 20.793V16.5V0.5C29.7362 0.223875 29.5126 0 29.2362 0H3.23621C1.85779 0 0.736206 1.12158 0.736206 2.5V27.5C0.736206 28.8784 1.85779 30 3.23621 30ZM23.2362 29V24H25.2362V29H23.2362ZM29.7362 29H26.2362V23.5C26.2362 23.2239 26.0126 23 25.7362 23H22.7362C22.4598 23 22.2362 23.2239 22.2362 23.5V29H18.7362V22.207L24.2362 16.707L26.3827 18.8535C26.5262 18.9968 26.7411 19.0395 26.9276 18.9619C27.1146 18.8845 27.2362 18.7022 27.2362 18.5V17H28.7362V21C28.7362 21.1326 28.7889 21.2598 28.8827 21.3535L29.7362 22.207V29ZM3.23621 1H28.7362V16H26.7362C26.4598 16 26.2362 16.2239 26.2362 16.5V17.293L24.5897 15.6465C24.3944 15.4512 24.078 15.4512 23.8827 15.6465L17.8827 21.6465C17.7889 21.7402 17.7362 21.8674 17.7362 22V25H5.73621V4.5C5.73621 4.22388 5.51257 4 5.23621 4H3.23621C2.40906 4 1.73621 3.32715 1.73621 2.5C1.73621 1.67285 2.40906 1 3.23621 1ZM1.73621 4.49878C2.15418 4.81323 2.67371 5 3.23621 5H4.73621V29H3.23621C2.40906 29 1.73621 28.3272 1.73621 27.5V4.49878Z" fill="url(#paint0_linear_1712_12876)"/>
<path d="M7.73621 20.5H10.7362C11.0126 20.5 11.2362 20.2761 11.2362 20C11.2362 19.3481 11.6542 18.792 12.2362 18.5857V20C12.2362 20.2761 12.4598 20.5 12.7362 20.5H16.2362C16.5126 20.5 16.7362 20.2761 16.7362 20V13.5H26.7362C27.0126 13.5 27.2362 13.2761 27.2362 13V3C27.2362 2.72387 27.0126 2.5 26.7362 2.5H7.73621C7.45984 2.5 7.23621 2.72387 7.23621 3V20C7.23621 20.2761 7.45984 20.5 7.73621 20.5ZM26.2362 12.5H20.2362V11.5H21.7362C22.0126 11.5 22.2362 11.2761 22.2362 11C22.2362 9.79273 21.3759 8.78247 20.2362 8.55029V3.5H26.2362V12.5ZM13.7362 3.5V8.5H13.2362V9.5H14.2362C14.5126 9.5 14.7362 9.27612 14.7362 9V3.5H19.2362V9C19.2362 9.27612 19.4598 9.5 19.7362 9.5C20.3881 9.5 20.9442 9.91797 21.1508 10.5H19.7362C19.4598 10.5 19.2362 10.7239 19.2362 11V12.5H16.2362C15.9598 12.5 15.7362 12.7239 15.7362 13V19.5H13.2362V18C13.2362 17.7239 13.0126 17.5 12.7362 17.5C11.5287 17.5 10.5189 18.3603 10.2865 19.5H8.23621V9.5H11.7362V8.5H8.23621V3.5H13.7362Z" fill="url(#paint1_linear_1712_12876)"/>
<path d="M7.73621 23H6.73621V24H7.73621V23Z" fill="url(#paint2_linear_1712_12876)"/>
<path d="M9.73621 23H8.73621V24H9.73621V23Z" fill="url(#paint3_linear_1712_12876)"/>
<path d="M11.7362 23H10.7362V24H11.7362V23Z" fill="url(#paint4_linear_1712_12876)"/>
<defs>
<linearGradient id="paint0_linear_1712_12876" x1="0.736206" y1="0.542364" x2="33.0734" y2="5.02195" gradientUnits="userSpaceOnUse">
<stop offset="0.158241" stop-color="#002D31"/>
<stop offset="0.32869" stop-color="#005961"/>
<stop offset="0.509791" stop-color="#00818C"/>
<stop offset="0.786145" stop-color="#005961"/>
<stop offset="0.988044" stop-color="#002D31"/>
</linearGradient>
<linearGradient id="paint1_linear_1712_12876" x1="7.23621" y1="2.82542" x2="28.6995" y2="6.12904" gradientUnits="userSpaceOnUse">
<stop offset="0.158241" stop-color="#002D31"/>
<stop offset="0.32869" stop-color="#005961"/>
<stop offset="0.509791" stop-color="#00818C"/>
<stop offset="0.786145" stop-color="#005961"/>
<stop offset="0.988044" stop-color="#002D31"/>
</linearGradient>
<linearGradient id="paint2_linear_1712_12876" x1="6.73621" y1="23.0181" x2="7.81411" y2="23.1674" gradientUnits="userSpaceOnUse">
<stop offset="0.158241" stop-color="#002D31"/>
<stop offset="0.32869" stop-color="#005961"/>
<stop offset="0.509791" stop-color="#00818C"/>
<stop offset="0.786145" stop-color="#005961"/>
<stop offset="0.988044" stop-color="#002D31"/>
</linearGradient>
<linearGradient id="paint3_linear_1712_12876" x1="8.73621" y1="23.0181" x2="9.81411" y2="23.1674" gradientUnits="userSpaceOnUse">
<stop offset="0.158241" stop-color="#002D31"/>
<stop offset="0.32869" stop-color="#005961"/>
<stop offset="0.509791" stop-color="#00818C"/>
<stop offset="0.786145" stop-color="#005961"/>
<stop offset="0.988044" stop-color="#002D31"/>
</linearGradient>
<linearGradient id="paint4_linear_1712_12876" x1="10.7362" y1="23.0181" x2="11.8141" y2="23.1674" gradientUnits="userSpaceOnUse">
<stop offset="0.158241" stop-color="#002D31"/>
<stop offset="0.32869" stop-color="#005961"/>
<stop offset="0.509791" stop-color="#00818C"/>
<stop offset="0.786145" stop-color="#005961"/>
<stop offset="0.988044" stop-color="#002D31"/>
</linearGradient>
</defs>
</svg>
