<svg width="33" height="24" viewBox="0 0 33 24" fill="none" xmlns="http://www.w3.org/2000/svg">
<path fill-rule="evenodd" clip-rule="evenodd" d="M3.87927 21.4556H4.47302V22.2034C4.47302 22.5306 4.73932 22.7969 5.06766 22.7969H31.1909C31.269 22.7969 31.3463 22.7816 31.4185 22.7517C31.4907 22.7218 31.5562 22.678 31.6114 22.6228C31.6667 22.5676 31.7105 22.502 31.7403 22.4298C31.7702 22.3577 31.7856 22.2803 31.7855 22.2022V5.57902C31.7854 5.42148 31.7229 5.27042 31.6116 5.15894C31.5003 5.04747 31.3493 4.98469 31.1918 4.98438H30.3383V4.39062H31.1918C31.8476 4.39062 32.3793 4.92352 32.3793 5.57902V22.2022C32.3793 22.3583 32.3486 22.5129 32.2889 22.6571C32.2292 22.8013 32.1416 22.9323 32.0313 23.0426C31.9209 23.153 31.7899 23.2405 31.6457 23.3002C31.5015 23.36 31.347 23.3907 31.1909 23.3906H5.06766C4.75261 23.3907 4.45043 23.2656 4.22757 23.043C4.00471 22.8203 3.87943 22.5182 3.87927 22.2031V21.4556Z" fill="url(#paint0_linear_1712_12874)"/>
<path fill-rule="evenodd" clip-rule="evenodd" d="M2.09802 19.6743H2.69177V20.4222C2.69177 20.7493 2.95807 21.0156 3.28641 21.0156H29.4096C29.4877 21.0157 29.5651 21.0003 29.6372 20.9704C29.7094 20.9406 29.775 20.8968 29.8302 20.8415C29.8854 20.7863 29.9292 20.7208 29.9591 20.6486C29.989 20.5764 30.0043 20.4991 30.0043 20.421V3.79777C30.0045 3.64045 29.9423 3.48947 29.8313 3.37797C29.7203 3.26648 29.5696 3.2036 29.4123 3.20312H28.5719V2.60938H29.4123C29.7271 2.60985 30.0288 2.73529 30.2512 2.95813C30.4735 3.18097 30.5983 3.48297 30.598 3.79777V20.421C30.5981 20.5771 30.5673 20.7316 30.5076 20.8758C30.4479 21.02 30.3604 21.151 30.25 21.2614C30.1397 21.3718 30.0087 21.4593 29.8645 21.519C29.7203 21.5787 29.5657 21.6094 29.4096 21.6094H3.28641C2.97136 21.6095 2.66918 21.4844 2.44632 21.2617C2.22346 21.039 2.09818 20.7369 2.09802 20.4219V19.6743Z" fill="url(#paint1_linear_1712_12874)"/>
<path fill-rule="evenodd" clip-rule="evenodd" d="M0.910523 2.01652V18.6397C0.910523 18.9672 1.17712 19.2344 1.50516 19.2344H27.6284C27.7065 19.2344 27.7838 19.2191 27.856 19.1892C27.9282 19.1593 27.9937 19.1155 28.0489 19.0603C28.1042 19.0051 28.148 18.9395 28.1778 18.8673C28.2077 18.7952 28.2231 18.7178 28.223 18.6397V2.01652C28.2229 1.85886 28.1602 1.7077 28.0487 1.59621C27.9372 1.48473 27.786 1.42203 27.6284 1.42188H1.50516C1.42706 1.42184 1.34972 1.43719 1.27756 1.46706C1.2054 1.49693 1.13983 1.54073 1.0846 1.59595C1.02938 1.65118 0.985577 1.71675 0.955707 1.78891C0.925838 1.86107 0.910484 1.93842 0.910523 2.01652ZM0.316772 2.01652C0.316733 1.86044 0.347445 1.70589 0.407154 1.56169C0.466862 1.41749 0.554397 1.28647 0.664757 1.17611C0.775117 1.06575 0.90614 0.978215 1.05034 0.918507C1.19454 0.858798 1.34909 0.828086 1.50516 0.828125H27.6284C27.9435 0.828282 28.2457 0.953538 28.4685 1.17637C28.6914 1.3992 28.8166 1.70138 28.8168 2.01652V18.6397C28.8168 18.7958 28.7861 18.9504 28.7264 19.0946C28.6667 19.2388 28.5791 19.3698 28.4688 19.4801C28.3584 19.5905 28.2274 19.678 28.0832 19.7377C27.939 19.7975 27.7845 19.8282 27.6284 19.8281H1.50516C1.19003 19.828 0.88785 19.7027 0.665018 19.4799C0.442185 19.257 0.31693 18.9549 0.316772 18.6397V2.01652Z" fill="url(#paint2_linear_1712_12874)"/>
<path fill-rule="evenodd" clip-rule="evenodd" d="M7.73863 8.72517L7.04721 10.2372L7.20426 8.58207L5.84932 9.54573L6.81298 8.19079L5.1579 8.34784L6.66988 7.65642L5.1579 6.965L6.81298 7.12204L5.84932 5.76711L7.20426 6.73076L7.04721 5.07568L7.73863 6.58767L8.43005 5.07568L8.27301 6.73076L9.62794 5.76711L8.66429 7.12204L10.3194 6.965L8.80738 7.65642L10.3194 8.34784L8.66429 8.19079L9.62794 9.54573L8.27301 8.58207L8.43005 10.2372L7.73863 8.72517ZM8.61412 17.0727L10.5539 13.8053C10.7207 13.5247 10.9918 13.5262 11.1577 13.8053L12.9339 16.7972V15.9719C12.9339 15.8065 12.9993 15.5548 13.0764 15.4144L17.2475 7.87967C17.4067 7.59259 17.6649 7.59289 17.8238 7.87907L22.2125 15.7786L21.8702 14.1862C21.8357 14.0259 21.8746 13.7839 21.9613 13.6399L22.575 12.6169C22.743 12.3369 23.0143 12.3355 23.1859 12.6211L26.4418 18.047H6.25426L7.42394 16.1758C7.59762 15.8977 7.88113 15.8997 8.05332 16.1758L8.61412 17.0727Z" fill="url(#paint3_linear_1712_12874)"/>
<path fill-rule="evenodd" clip-rule="evenodd" d="M2.3949 3.2052V17.451C2.3949 17.6158 2.5279 17.75 2.68999 17.75H26.4436C26.6071 17.75 26.7386 17.6173 26.7386 17.451V3.2052C26.7386 3.04044 26.6056 2.90625 26.4436 2.90625H2.68999C2.65094 2.90633 2.61228 2.91414 2.57626 2.92924C2.54024 2.94434 2.50757 2.96642 2.48013 2.99422C2.45269 3.02201 2.43104 3.05497 2.41641 3.09118C2.40178 3.1274 2.39447 3.16615 2.3949 3.2052ZM2.09802 3.2052C2.09802 2.87597 2.36135 2.60938 2.68999 2.60938H26.4436C26.7704 2.60938 27.0355 2.87745 27.0355 3.2052V17.451C27.036 17.5291 27.021 17.6064 26.9914 17.6787C26.9619 17.7509 26.9183 17.8166 26.8633 17.872C26.8083 17.9273 26.7429 17.9713 26.6709 18.0013C26.5989 18.0313 26.5216 18.0468 26.4436 18.0469H2.68999C2.53254 18.0462 2.3818 17.983 2.27082 17.8713C2.15985 17.7596 2.09771 17.6085 2.09802 17.451V3.2052Z" fill="url(#paint4_linear_1712_12874)"/>
<defs>
<linearGradient id="paint0_linear_1712_12874" x1="3.87927" y1="4.73412" x2="33.8932" y2="10.9707" gradientUnits="userSpaceOnUse">
<stop offset="0.158241" stop-color="#002D31"/>
<stop offset="0.32869" stop-color="#005961"/>
<stop offset="0.509791" stop-color="#00818C"/>
<stop offset="0.786145" stop-color="#005961"/>
<stop offset="0.988044" stop-color="#002D31"/>
</linearGradient>
<linearGradient id="paint1_linear_1712_12874" x1="2.09802" y1="2.95287" x2="32.1119" y2="9.18949" gradientUnits="userSpaceOnUse">
<stop offset="0.158241" stop-color="#002D31"/>
<stop offset="0.32869" stop-color="#005961"/>
<stop offset="0.509791" stop-color="#00818C"/>
<stop offset="0.786145" stop-color="#005961"/>
<stop offset="0.988044" stop-color="#002D31"/>
</linearGradient>
<linearGradient id="paint2_linear_1712_12874" x1="0.316773" y1="1.17162" x2="30.3307" y2="7.40824" gradientUnits="userSpaceOnUse">
<stop offset="0.158241" stop-color="#002D31"/>
<stop offset="0.32869" stop-color="#005961"/>
<stop offset="0.509791" stop-color="#00818C"/>
<stop offset="0.786145" stop-color="#005961"/>
<stop offset="0.988044" stop-color="#002D31"/>
</linearGradient>
<linearGradient id="paint3_linear_1712_12874" x1="5.1579" y1="5.31019" x2="27.3914" y2="10.3639" gradientUnits="userSpaceOnUse">
<stop offset="0.158241" stop-color="#002D31"/>
<stop offset="0.32869" stop-color="#005961"/>
<stop offset="0.509791" stop-color="#00818C"/>
<stop offset="0.786145" stop-color="#005961"/>
<stop offset="0.988044" stop-color="#002D31"/>
</linearGradient>
<linearGradient id="paint4_linear_1712_12874" x1="2.09802" y1="2.88847" x2="28.1877" y2="8.72668" gradientUnits="userSpaceOnUse">
<stop offset="0.158241" stop-color="#002D31"/>
<stop offset="0.32869" stop-color="#005961"/>
<stop offset="0.509791" stop-color="#00818C"/>
<stop offset="0.786145" stop-color="#005961"/>
<stop offset="0.988044" stop-color="#002D31"/>
</linearGradient>
</defs>
</svg>
