<svg width="33" height="30" viewBox="0 0 33 30" fill="none" xmlns="http://www.w3.org/2000/svg">
<path d="M8.60653 29.5345V28.5378C7.40029 28.5378 6.41885 27.5562 6.41885 26.3497V3.64998C6.41885 2.80358 6.08685 2.03334 5.54653 1.4623H23.496C24.702 1.4623 25.6832 2.44374 25.6832 3.64998V26.3498H26.6798V3.64998C26.6798 1.89398 25.2516 0.46582 23.496 0.46582H3.23485V1.46246C4.44109 1.46246 5.42221 2.4439 5.42221 3.65014V26.35C5.42221 28.1058 6.85069 29.5345 8.60653 29.5345Z" fill="url(#paint0_linear_1712_12873)"/>
<path d="M0.0511475 4.14822H6.41883V3.64998C6.41883 1.89398 4.99051 0.46582 3.23531 0.46582C1.47963 0.46582 0.0513096 1.89398 0.0513096 3.64998L0.0511475 4.14822ZM5.36491 3.15158H1.10507C1.33099 2.18454 2.20043 1.46214 3.23515 1.46214C4.26971 1.4623 5.13899 2.18454 5.36491 3.15158ZM8.60651 29.5345H28.8676C30.623 29.5345 32.0511 28.1058 32.0511 26.3498V25.8516H10.7934V26.3498C10.7934 27.5557 9.81227 28.5373 8.60635 28.538L8.60651 29.5345ZM30.9975 26.8481C30.7713 27.8154 29.9022 28.538 28.8675 28.538H10.9167C11.3593 28.072 11.6502 27.4828 11.751 26.8481H30.9975ZM12.9345 4.83078H8.45899V5.82726H12.9345V4.83078ZM12.9345 6.98166H8.45899V7.97814H12.9345V6.98166ZM12.9345 9.13302H8.45899V10.1297H12.9345V9.13302ZM12.9345 11.2841H8.45899V12.2805H12.9345V11.2841ZM12.9345 13.4354H8.45899V14.4321H12.9345V13.4354ZM23.6433 15.5868H8.45899V16.5834H23.6433V15.5868ZM23.6433 17.7377H8.45899V18.7343H23.6433V17.7377ZM23.6433 19.8892H8.45899V20.8858H23.6433V19.8892ZM23.6433 22.0401H8.45899V23.0367H23.6433V22.0401Z" fill="url(#paint1_linear_1712_12873)"/>
<path d="M18.1316 13.8804V9.94936H19.704V13.8804H18.1316ZM23.242 13.8804H20.4903V9.55626C20.4903 9.33916 20.3144 9.16315 20.0971 9.16315H17.7385C17.5212 9.16315 17.3454 9.33916 17.3454 9.55626V13.8804H14.5937V8.53971L18.9178 4.21557L20.6054 5.90316C20.7183 6.01583 20.8872 6.04942 21.0338 5.98838C21.1809 5.92753 21.2765 5.78415 21.2765 5.62522V4.44591H22.4558V7.59074C22.4558 7.69497 22.4972 7.79497 22.5709 7.86867L23.242 8.53971V13.8804Z" fill="url(#paint2_linear_1712_12873)"/>
<defs>
<linearGradient id="paint0_linear_1712_12873" x1="26.6798" y1="0.991346" x2="1.24097" y2="3.83357" gradientUnits="userSpaceOnUse">
<stop offset="0.158241" stop-color="#002D31"/>
<stop offset="0.32869" stop-color="#005961"/>
<stop offset="0.509791" stop-color="#00818C"/>
<stop offset="0.786145" stop-color="#005961"/>
<stop offset="0.988044" stop-color="#002D31"/>
</linearGradient>
<linearGradient id="paint1_linear_1712_12873" x1="32.0511" y1="0.991346" x2="-2.30477" y2="6.23052" gradientUnits="userSpaceOnUse">
<stop offset="0.158241" stop-color="#002D31"/>
<stop offset="0.32869" stop-color="#005961"/>
<stop offset="0.509791" stop-color="#00818C"/>
<stop offset="0.786145" stop-color="#005961"/>
<stop offset="0.988044" stop-color="#002D31"/>
</linearGradient>
<linearGradient id="paint2_linear_1712_12873" x1="13.8075" y1="3.4727" x2="24.8653" y2="4.84604" gradientUnits="userSpaceOnUse">
<stop offset="0.158241" stop-color="#002D31"/>
<stop offset="0.32869" stop-color="#005961"/>
<stop offset="0.509791" stop-color="#00818C"/>
<stop offset="0.786145" stop-color="#005961"/>
<stop offset="0.988044" stop-color="#002D31"/>
</linearGradient>
</defs>
</svg>
