<svg width="39" height="39" viewBox="0 0 39 39" fill="none" xmlns="http://www.w3.org/2000/svg">
<path d="M38.2322 15.9295L32.1385 13.492C31.8379 13.3725 31.5021 13.3772 31.205 13.5052C30.9079 13.6332 30.6737 13.8739 30.5541 14.1746C30.4345 14.4752 30.4392 14.811 30.5672 15.1081C30.6952 15.4052 30.936 15.6393 31.2366 15.7589L36.5626 17.8917V35.8074L29.2501 32.1511V21.938C29.2501 21.6148 29.1216 21.3048 28.8931 21.0762C28.6645 20.8476 28.3545 20.7192 28.0313 20.7192C27.7081 20.7192 27.3981 20.8476 27.1695 21.0762C26.941 21.3048 26.8126 21.6148 26.8126 21.938V32.1999L20.7188 35.6855V30.4692C20.7188 30.146 20.5904 29.836 20.3618 29.6074C20.1333 29.3789 19.8233 29.2505 19.5001 29.2505C19.1768 29.2505 18.8669 29.3789 18.6383 29.6074C18.4097 29.836 18.2813 30.146 18.2813 30.4692V35.6855L12.1876 32.1999V21.938C12.1876 21.6148 12.0591 21.3048 11.8306 21.0762C11.602 20.8476 11.292 20.7192 10.9688 20.7192C10.6456 20.7192 10.3356 20.8476 10.107 21.0762C9.87848 21.3048 9.75006 21.6148 9.75006 21.938V32.1511L2.43756 35.8074V17.8917L7.76349 15.7589C7.91234 15.6997 8.04806 15.6117 8.16291 15.5001C8.27777 15.3884 8.36952 15.2552 8.4329 15.1081C8.49627 14.961 8.53003 14.8028 8.53228 14.6426C8.53453 14.4824 8.50521 14.3234 8.44599 14.1746C8.38677 14.0257 8.29883 13.89 8.18716 13.7751C8.07549 13.6603 7.94227 13.5685 7.79515 13.5052C7.64802 13.4418 7.48989 13.408 7.32971 13.4058C7.16953 13.4035 7.01048 13.4328 6.86163 13.492L0.767882 15.9295C0.541115 16.0199 0.346694 16.1762 0.209796 16.3783C0.0728991 16.5804 -0.000172818 16.8189 6.34756e-05 17.063V37.7817C-0.000350994 37.9889 0.0520344 38.1927 0.152258 38.3739C0.252483 38.5552 0.39724 38.7079 0.572877 38.8177C0.766831 38.9379 0.990633 39.0012 1.21881 39.0005C1.4096 38.9993 1.59747 38.9534 1.76727 38.8664L10.9688 34.2839L18.9272 38.8299H19.0613L19.2197 38.903C19.4282 38.9518 19.6451 38.9518 19.8535 38.903L20.012 38.8299H20.146L28.0313 34.2839L37.1963 38.8664C37.3771 38.9592 37.5782 39.0053 37.7813 39.0005C38.0095 39.0012 38.2333 38.9379 38.4272 38.8177C38.6029 38.7079 38.7476 38.5552 38.8479 38.3739C38.9481 38.1927 39.0005 37.9889 39.0001 37.7817V17.063C39.0003 16.8189 38.9272 16.5804 38.7903 16.3783C38.6534 16.1762 38.459 16.0199 38.2322 15.9295Z" fill="url(#paint0_linear_1571_53226)"/>
<path d="M19.5012 26.8125C19.6873 26.812 19.8709 26.769 20.0378 26.6866C20.2047 26.6042 20.3505 26.4847 20.464 26.3372C21.3659 25.1184 29.2512 14.7347 29.2512 9.75C29.2512 7.16414 28.224 4.68419 26.3955 2.85571C24.567 1.02723 22.0871 0 19.5012 0C16.9154 0 14.4354 1.02723 12.6069 2.85571C10.7784 4.68419 9.75122 7.16414 9.75122 9.75C9.75122 14.7347 17.6365 25.1672 18.5384 26.3372C18.6519 26.4847 18.7977 26.6042 18.9646 26.6866C19.1315 26.769 19.3151 26.812 19.5012 26.8125ZM19.5012 2.4375C21.4406 2.4375 23.3006 3.20792 24.6719 4.57928C26.0433 5.95064 26.8137 7.8106 26.8137 9.75C26.8137 12.8578 22.1825 19.8656 19.5012 23.5584C16.82 19.9022 12.1887 12.8578 12.1887 9.75C12.1887 7.8106 12.9591 5.95064 14.3305 4.57928C15.7019 3.20792 17.5618 2.4375 19.5012 2.4375Z" fill="url(#paint1_linear_1571_53226)"/>
<path d="M24.3763 9.75013C24.3763 8.78594 24.0903 7.84341 23.5547 7.04172C23.019 6.24003 22.2576 5.61519 21.3668 5.24621C20.4761 4.87723 19.4959 4.78069 18.5502 4.9688C17.6045 5.1569 16.7359 5.6212 16.0541 6.30298C15.3723 6.98476 14.9081 7.8534 14.72 8.79906C14.5319 9.74472 14.6284 10.7249 14.9974 11.6157C15.3663 12.5065 15.9912 13.2679 16.7929 13.8035C17.5945 14.3392 18.5371 14.6251 19.5013 14.6251C20.7942 14.6251 22.0342 14.1115 22.9484 13.1973C23.8627 12.283 24.3763 11.0431 24.3763 9.75013ZM17.0638 9.75013C17.0638 9.26803 17.2067 8.79677 17.4746 8.39592C17.7424 7.99508 18.1231 7.68266 18.5685 7.49817C19.0139 7.31368 19.504 7.26541 19.9768 7.35946C20.4496 7.45351 20.884 7.68566 21.2248 8.02655C21.5657 8.36744 21.7979 8.80176 21.8919 9.27459C21.986 9.74742 21.9377 10.2375 21.7532 10.6829C21.5687 11.1283 21.2563 11.509 20.8555 11.7768C20.4546 12.0447 19.9834 12.1876 19.5013 12.1876C18.8548 12.1876 18.2348 11.9308 17.7777 11.4737C17.3206 11.0166 17.0638 10.3966 17.0638 9.75013Z" fill="url(#paint2_linear_1571_53226)"/>
<defs>
<linearGradient id="paint0_linear_1571_53226" x1="6.11281e-05" y1="13.8684" x2="41.0176" y2="22.5262" gradientUnits="userSpaceOnUse">
<stop offset="0.158241" stop-color="#002D31"/>
<stop offset="0.32869" stop-color="#005961"/>
<stop offset="0.509791" stop-color="#00818C"/>
<stop offset="0.786145" stop-color="#005961"/>
<stop offset="0.988044" stop-color="#002D31"/>
</linearGradient>
<linearGradient id="paint1_linear_1571_53226" x1="9.75122" y1="0.484737" x2="30.9585" y2="2.62131" gradientUnits="userSpaceOnUse">
<stop offset="0.158241" stop-color="#002D31"/>
<stop offset="0.32869" stop-color="#005961"/>
<stop offset="0.509791" stop-color="#00818C"/>
<stop offset="0.786145" stop-color="#005961"/>
<stop offset="0.988044" stop-color="#002D31"/>
</linearGradient>
<linearGradient id="paint2_linear_1571_53226" x1="14.6263" y1="5.05139" x2="25.1358" y2="6.50725" gradientUnits="userSpaceOnUse">
<stop offset="0.158241" stop-color="#002D31"/>
<stop offset="0.32869" stop-color="#005961"/>
<stop offset="0.509791" stop-color="#00818C"/>
<stop offset="0.786145" stop-color="#005961"/>
<stop offset="0.988044" stop-color="#002D31"/>
</linearGradient>
</defs>
</svg>
