<svg width="28" height="29" viewBox="0 0 28 29" fill="none" xmlns="http://www.w3.org/2000/svg">
<path d="M14.2353 6.97106C14.3905 6.97127 14.5392 7.033 14.6489 7.1427C14.7586 7.2524 14.8203 7.40113 14.8205 7.55627H15.7268C15.7257 7.24107 15.6245 6.93436 15.4379 6.68033C15.2513 6.4263 14.9889 6.23806 14.6885 6.14275V5.55615H13.7822V6.14291C13.4438 6.25036 13.155 6.4754 12.9682 6.77729C12.7813 7.07919 12.7087 7.43801 12.7634 7.78882C12.8182 8.13963 12.9967 8.45925 13.2667 8.68984C13.5367 8.92043 13.8803 9.04676 14.2353 9.04597C14.3509 9.04577 14.464 9.07986 14.5602 9.14393C14.6564 9.20799 14.7315 9.29915 14.7759 9.40588C14.8203 9.51261 14.8321 9.63012 14.8097 9.74353C14.7873 9.85695 14.7318 9.96118 14.6502 10.043C14.5686 10.1249 14.4645 10.1807 14.3512 10.2034C14.2378 10.2262 14.1203 10.2148 14.0134 10.1707C13.9066 10.1266 13.8152 10.0518 13.7508 9.95577C13.6865 9.85974 13.652 9.74678 13.6519 9.63118H12.7456C12.7467 9.94595 12.8477 10.2523 13.0339 10.506C13.2202 10.7597 13.4822 10.9478 13.7822 11.0431V11.6297H14.6885V11.0433C15.0273 10.9362 15.3165 10.7112 15.5038 10.4091C15.691 10.1071 15.7638 9.74798 15.709 9.39687C15.6542 9.04575 15.4754 8.72589 15.2051 8.49526C14.9347 8.26463 14.5907 8.13849 14.2353 8.13972C14.0804 8.13972 13.9317 8.07815 13.8221 7.96857C13.7126 7.85899 13.651 7.71036 13.651 7.55539C13.651 7.40042 13.7126 7.25179 13.8221 7.14221C13.9317 7.03263 14.0804 6.97106 14.2353 6.97106Z" fill="url(#paint0_linear_1712_12875)"/>
<path d="M14.2362 4.15137C13.3578 4.15139 12.499 4.4119 11.7686 4.89996C11.0382 5.38802 10.469 6.08171 10.1328 6.8933C9.79669 7.70489 9.70875 8.59794 9.88015 9.45951C10.0516 10.3211 10.4746 11.1125 11.0958 11.7336C11.7169 12.3548 12.5083 12.7778 13.3699 12.9491C14.2315 13.1205 15.1245 13.0325 15.9361 12.6963C16.7477 12.3601 17.4414 11.7908 17.9294 11.0604C18.4174 10.33 18.6779 9.47124 18.6778 8.59279C18.6765 7.41523 18.2081 6.2863 17.3754 5.45366C16.5427 4.62103 15.4138 4.15268 14.2362 4.15137ZM14.2362 12.1282C13.537 12.1282 12.8535 11.9208 12.2722 11.5323C11.6908 11.1439 11.2377 10.5917 10.9701 9.94574C10.7026 9.29975 10.6326 8.58894 10.769 7.90317C10.9054 7.2174 11.2421 6.58749 11.7365 6.09308C12.2309 5.59866 12.8608 5.26196 13.5466 5.12555C14.2324 4.98914 14.9432 5.05914 15.5892 5.3267C16.2351 5.59427 16.7873 6.04738 17.1758 6.62873C17.5642 7.21009 17.7716 7.89359 17.7716 8.59279C17.7705 9.53011 17.3977 10.4287 16.7349 11.0915C16.0722 11.7543 15.1735 12.1271 14.2362 12.1282ZM21.6701 15.5383C21.8252 15.5386 21.9739 15.6003 22.0836 15.71C22.1933 15.8197 22.2551 15.9684 22.2553 16.1236H23.1615C23.1604 15.8084 23.0593 15.5016 22.8727 15.2476C22.6861 14.9936 22.4236 14.8054 22.1232 14.71V14.1234H21.2169V14.7102C20.8785 14.8176 20.5898 15.0427 20.4029 15.3446C20.216 15.6465 20.1434 16.0053 20.1981 16.3561C20.2529 16.7069 20.4314 17.0265 20.7014 17.2571C20.9714 17.4877 21.315 17.614 21.6701 17.6132C21.7857 17.6131 21.8987 17.6471 21.995 17.7112C22.0912 17.7753 22.1662 17.8664 22.2107 17.9732C22.2551 18.0799 22.2668 18.1974 22.2444 18.3108C22.2221 18.4242 22.1666 18.5285 22.0849 18.6103C22.0033 18.6922 21.8993 18.748 21.7859 18.7707C21.6726 18.7935 21.555 18.782 21.4482 18.738C21.3413 18.6939 21.2499 18.6191 21.1856 18.5231C21.1212 18.427 21.0868 18.3141 21.0866 18.1985H20.1804C20.1815 18.5132 20.2824 18.8195 20.4687 19.0733C20.655 19.327 20.917 19.5151 21.2169 19.6104V20.1971H22.1232V19.6106C22.462 19.5034 22.7513 19.2785 22.9385 18.9764C23.1257 18.6744 23.1986 18.3153 23.1438 17.9641C23.089 17.613 22.9102 17.2932 22.6398 17.0625C22.3695 16.8319 22.0254 16.7058 21.6701 16.707C21.5151 16.707 21.3665 16.6454 21.2569 16.5359C21.1473 16.4263 21.0857 16.2776 21.0857 16.1227C21.0857 15.9677 21.1473 15.8191 21.2569 15.7095C21.3665 15.5999 21.5151 15.5383 21.6701 15.5383ZM15.6648 24.0103C15.7543 24.0104 15.8401 24.046 15.9033 24.1092C15.9666 24.1725 16.0021 24.2583 16.0022 24.3477H16.9085C16.9079 24.0981 16.8322 23.8544 16.6912 23.6483C16.5502 23.4423 16.3505 23.2834 16.118 23.1925V22.8249H15.2117V23.1926C14.9422 23.2981 14.718 23.4943 14.5778 23.7475C14.4377 24.0008 14.3904 24.295 14.4441 24.5793C14.4978 24.8637 14.6492 25.1204 14.8721 25.305C15.095 25.4896 15.3754 25.5905 15.6648 25.5903C15.7314 25.5902 15.7966 25.6098 15.852 25.6467C15.9075 25.6836 15.9507 25.7361 15.9764 25.7976C16.002 25.859 16.0088 25.9267 15.9959 25.9921C15.983 26.0574 15.9511 26.1175 15.9041 26.1647C15.8571 26.2119 15.7971 26.2441 15.7318 26.2572C15.6665 26.2703 15.5988 26.2638 15.5372 26.2384C15.4757 26.213 15.423 26.17 15.3859 26.1147C15.3488 26.0594 15.3289 25.9943 15.3287 25.9277H14.4225C14.423 26.177 14.4986 26.4204 14.6394 26.6262C14.7801 26.832 14.9795 26.9906 15.2117 27.0816V27.4492H16.118V27.0817C16.3878 26.9766 16.6124 26.7803 16.7528 26.527C16.8933 26.2738 16.9407 25.9793 16.8869 25.6947C16.8331 25.4102 16.6815 25.1533 16.4583 24.9688C16.2352 24.7842 15.9544 24.6835 15.6648 24.6841C15.5755 24.6841 15.4898 24.6486 15.4266 24.5854C15.3635 24.5222 15.328 24.4365 15.328 24.3472C15.328 24.2579 15.3635 24.1722 15.4266 24.109C15.4898 24.0458 15.5755 24.0103 15.6648 24.0103Z" fill="url(#paint1_linear_1712_12875)"/>
<path d="M15.6655 21.3878C14.924 21.3878 14.1991 21.6077 13.5825 22.0196C12.9659 22.4316 12.4854 23.0171 12.2016 23.7022C11.9178 24.3872 11.8435 25.1411 11.9882 25.8684C12.1328 26.5957 12.4899 27.2637 13.0142 27.7881C13.5385 28.3124 14.2066 28.6695 14.9338 28.8142C15.6611 28.9589 16.415 28.8847 17.1 28.6009C17.7851 28.3172 18.3707 27.8366 18.7827 27.2201C19.1947 26.6036 19.4146 25.8787 19.4146 25.1372C19.4135 24.1431 19.0182 23.1901 18.3153 22.4872C17.6125 21.7843 16.6595 21.3889 15.6655 21.3878ZM15.6655 27.98C15.1032 27.98 14.5535 27.8133 14.086 27.5009C13.6184 27.1886 13.254 26.7445 13.0388 26.2251C12.8236 25.7056 12.7673 25.1339 12.877 24.5824C12.9867 24.0309 13.2575 23.5244 13.6551 23.1268C14.0527 22.7291 14.5593 22.4584 15.1108 22.3487C15.6623 22.239 16.2339 22.2953 16.7534 22.5105C17.2729 22.7257 17.7169 23.0901 18.0293 23.5576C18.3417 24.0252 18.5084 24.5749 18.5084 25.1372C18.5075 25.8909 18.2077 26.6135 17.6748 27.1464C17.1418 27.6794 16.4192 27.9792 15.6655 27.98ZM1.32214 17.0738H17.2337C17.2331 17.1028 17.2293 17.131 17.2293 17.1601C17.2287 17.7438 17.3432 18.3218 17.5661 18.8612C17.7891 19.4006 18.1161 19.8908 18.5286 20.3037C18.9412 20.7167 19.431 21.0442 19.9702 21.2677C20.5093 21.4912 21.0873 21.6062 21.671 21.6062C22.2546 21.6062 22.8326 21.4912 23.3717 21.2677C23.9109 21.0442 24.4008 20.7167 24.8133 20.3037C25.2258 19.8908 25.5528 19.4006 25.7758 18.8612C25.9987 18.3218 26.1132 17.7438 26.1126 17.1601C26.1126 17.131 26.1088 17.1028 26.1082 17.0738H27.1503C27.2704 17.0738 27.3857 17.0261 27.4707 16.9411C27.5557 16.8561 27.6034 16.7409 27.6034 16.6207V0.566406C27.6034 0.44623 27.5557 0.330976 27.4707 0.245999C27.3857 0.161021 27.2704 0.113281 27.1503 0.113281H1.32214C1.20197 0.113281 1.08671 0.161021 1.00174 0.245999C0.916758 0.330976 0.869019 0.44623 0.869019 0.566406V16.6207C0.869019 16.7409 0.916758 16.8561 1.00174 16.9411C1.08671 17.0261 1.20197 17.0738 1.32214 17.0738ZM21.6709 20.6955C20.9717 20.6955 20.2883 20.4881 19.7069 20.0997C19.1255 19.7112 18.6724 19.159 18.4049 18.5131C18.1373 17.8671 18.0673 17.1563 18.2037 16.4705C18.3402 15.7847 18.6769 15.1548 19.1713 14.6604C19.6657 14.166 20.2956 13.8293 20.9814 13.6929C21.6671 13.5565 22.3779 13.6265 23.0239 13.894C23.6699 14.1616 24.222 14.6147 24.6105 15.1961C24.999 15.7774 25.2063 16.4609 25.2064 17.1601C25.2053 18.0974 24.8325 18.9961 24.1697 19.6589C23.5069 20.3217 22.6083 20.6945 21.6709 20.6955ZM21.5707 12.7238C20.6557 12.7437 19.7695 13.0477 19.035 13.5938H7.15458C7.05541 12.8843 6.72803 12.2264 6.2219 11.7195C5.71577 11.2125 5.05839 10.8841 4.3491 10.7838V6.39862C5.05782 6.2989 5.71484 5.97126 6.22092 5.46518C6.727 4.9591 7.05464 4.30208 7.15436 3.59336H21.3181C21.4178 4.30208 21.7454 4.9591 22.2515 5.46518C22.7576 5.97126 23.4146 6.2989 24.1233 6.39862V10.7836C23.5672 10.8609 23.0402 11.08 22.5932 11.4198C22.1462 11.7596 21.7941 12.2086 21.5707 12.7238ZM1.77527 1.01953H26.6971V16.1676H25.9968C25.8047 15.3355 25.3774 14.5763 24.7658 13.9803C24.1543 13.3844 23.3842 12.9769 22.5475 12.8064C22.7581 12.4565 23.0556 12.1669 23.4111 11.9659C23.7666 11.7648 24.168 11.6591 24.5764 11.6589C24.6966 11.6589 24.8119 11.6111 24.8968 11.5262C24.9818 11.4412 25.0296 11.3259 25.0296 11.2058V5.97671C25.0296 5.85653 24.9818 5.74128 24.8968 5.6563C24.8119 5.57132 24.6966 5.52358 24.5764 5.52358C23.9446 5.52289 23.3387 5.27157 22.8919 4.82476C22.4451 4.37795 22.1938 3.77214 22.1931 3.14025C22.1931 3.02008 22.1454 2.90483 22.0604 2.81985C21.9754 2.73488 21.8602 2.68713 21.74 2.68713H6.73243C6.61226 2.68713 6.497 2.73488 6.41203 2.81985C6.32705 2.90483 6.27931 3.02008 6.2793 3.14025C6.27861 3.77214 6.02729 4.37795 5.58048 4.82476C5.13367 5.27157 4.52786 5.52289 3.89597 5.52358C3.7758 5.52358 3.66054 5.57132 3.57557 5.6563C3.49059 5.74128 3.44285 5.85653 3.44285 5.97671V11.2058C3.44286 11.3259 3.4906 11.4412 3.57557 11.5262C3.66055 11.6111 3.7758 11.6589 3.89597 11.6589C4.52847 11.6602 5.13461 11.9124 5.58141 12.3601C6.02822 12.8077 6.2792 13.4144 6.2793 14.0469C6.27931 14.167 6.32705 14.2823 6.41203 14.3673C6.497 14.4522 6.61226 14.5 6.73243 14.5H18.1226C17.7492 14.9951 17.4843 15.5633 17.3451 16.1676H1.77527V1.01953Z" fill="url(#paint2_linear_1712_12875)"/>
<defs>
<linearGradient id="paint0_linear_1712_12875" x1="12.7456" y1="5.66596" x2="16.0056" y2="5.88762" gradientUnits="userSpaceOnUse">
<stop offset="0.158241" stop-color="#002D31"/>
<stop offset="0.32869" stop-color="#005961"/>
<stop offset="0.509791" stop-color="#00818C"/>
<stop offset="0.786145" stop-color="#005961"/>
<stop offset="0.988044" stop-color="#002D31"/>
</linearGradient>
<linearGradient id="paint1_linear_1712_12875" x1="9.79478" y1="4.57256" x2="24.3872" y2="5.73234" gradientUnits="userSpaceOnUse">
<stop offset="0.158241" stop-color="#002D31"/>
<stop offset="0.32869" stop-color="#005961"/>
<stop offset="0.509791" stop-color="#00818C"/>
<stop offset="0.786145" stop-color="#005961"/>
<stop offset="0.988044" stop-color="#002D31"/>
</linearGradient>
<linearGradient id="paint2_linear_1712_12875" x1="0.869019" y1="0.633462" x2="29.7605" y2="4.35216" gradientUnits="userSpaceOnUse">
<stop offset="0.158241" stop-color="#002D31"/>
<stop offset="0.32869" stop-color="#005961"/>
<stop offset="0.509791" stop-color="#00818C"/>
<stop offset="0.786145" stop-color="#005961"/>
<stop offset="0.988044" stop-color="#002D31"/>
</linearGradient>
</defs>
</svg>
