<svg width="116" height="61" viewBox="0 0 116 61" fill="none" xmlns="http://www.w3.org/2000/svg">
<path d="M96.4982 13.1127H98.8912L106.036 30.0352C105.953 30.4155 105.995 30.2042 105.788 31.2183L105.706 31.5986L105.665 31.9789L105.582 32.3592L105.128 34.1761C104.592 36.5 103.808 38.1549 103.272 38.0704C103.148 38.0704 103.024 37.9014 103.024 37.7324V37.2254C102.983 36.169 102.281 35.493 101.209 35.493C100.26 35.493 99.4345 36.3803 99.4345 37.3944C99.4345 38.662 100.342 39.5493 101.662 39.5493C103.684 39.5493 104.929 37.9014 105.795 33.9648L106.208 32.1479C106.538 30.5423 106.827 29.5211 107.198 28.5915L112.321 15.7676C113.105 13.9085 113.022 14.0775 113.146 13.8662C113.518 13.3592 114.054 13.1056 114.714 13.1056H115.993V12.3873H108.023V13.1056H109.674C111.118 13.1056 111.943 13.4437 111.943 14.1197C111.943 14.669 111.654 15.7254 111.118 17.0423L107.81 25.3803L102.646 13.1127H105.582V12.3944H96.4913V13.1127H96.4982ZM94.1739 26.0211C93.5138 27.6268 92.6061 28.4366 91.4096 28.4366C90.0893 28.4366 89.5942 27.7606 89.5942 26.0211V13.1127H94.8409V12.3944H89.5942V6.72535H89.0165V7.02113C89.0165 7.99296 88.3151 9.64085 87.49 10.7887C86.706 11.8873 85.592 12.3944 83.8935 12.3944H82.8208V13.1127H86.2109V25.3803C86.2109 27.7887 87.82 29.2324 90.55 29.2324C92.6955 29.2324 93.9401 28.3451 94.8478 26.1831L94.1877 26.0141L94.1739 26.0211ZM69.4666 18.1549C69.5491 15.831 69.6316 15.1056 69.9204 14.3873C70.4981 12.8662 71.8596 12.0634 73.7644 12.0634C76.57 12.0634 77.6084 13.5845 77.6084 17.7324C77.6084 18.1127 77.5259 18.1549 76.9895 18.1549H69.4735H69.4666ZM81.2392 23.0211C80.0014 26.8732 77.7253 28.6479 74.1357 28.6479C72.4029 28.6479 71.0757 28.0563 70.2505 26.9577C69.5904 26.0282 69.3841 24.8873 69.3841 22.0493C69.3841 21.6268 69.3841 21.162 69.4666 18.8732H81.0742C81.4455 18.8732 81.5693 18.831 81.5693 18.6197C81.528 17.7324 80.5378 15.5704 79.7126 14.5141C78.186 12.6127 75.9511 11.4648 73.8057 11.4648C69.5491 11.4648 65.6226 15.8662 65.6226 20.6479C65.6226 25.4296 69.5491 29.3239 74.2595 29.3239C78.0622 29.3239 80.9916 26.9577 81.8993 23.1479L81.2392 23.0211ZM59.2206 0C58.1478 0 57.2814 0.887324 57.2814 1.98592C57.2814 3.08451 58.1478 3.92958 59.2206 3.92958C60.2933 3.92958 61.1185 3.04225 61.1185 1.98592C61.1185 0.929577 60.2521 0 59.2206 0ZM57.4877 13.1127V28.0493H54.3039V28.7676H64.0135V28.0493H60.8297V11.1268C60.2933 12.1408 59.7982 12.3944 58.2716 12.3944H54.3451V13.1127H57.4877ZM52.2959 23.0563C51.6358 26.6549 49.2359 28.6831 45.6876 28.6831C42.1393 28.6831 40.7296 26.9085 40.7296 21.7887V19.8873C40.7296 14.007 41.9674 12.2746 46.1002 12.2746C48.2457 12.2746 49.4078 12.6549 49.4078 13.2887C49.4078 13.4577 49.3665 13.5845 49.284 13.669C48.5826 14.3873 48.4176 14.7676 48.4176 15.4437C48.4176 16.5 49.284 17.3873 50.233 17.3873C51.2645 17.3873 52.0484 16.5423 52.0484 15.4859C52.0484 13.2887 49.5316 11.6338 46.224 11.6338C41.3072 11.6338 36.9269 16.2465 36.9269 21.4085C36.9269 25.8099 40.8947 29.3239 45.8939 29.3239C49.7379 29.3239 52.3784 26.9155 52.8736 23.0634H52.2959V23.0563ZM29.9335 23.3944C29.9335 27.2887 28.6132 28.6831 24.893 28.6831C21.1728 28.6831 19.6875 27.0775 19.6875 23.3099V17.4296C19.6875 13.7887 21.3791 12.0986 25.0168 12.0986C26.6671 12.0986 28.0356 12.6056 28.9433 13.493C29.7684 14.338 29.9335 15.0563 29.9335 17.5141V23.3944ZM25.0168 11.507C20.5127 11.507 15.8435 15.993 15.8435 20.3521C15.8435 24.9648 20.1826 29.2817 24.8105 29.2817C29.4384 29.2817 33.7362 25.1338 33.7362 20.3099C33.7362 15.7394 29.5209 11.507 25.0168 11.507ZM0 22.8451V28.9366H0.536368V28.6408C0.536368 27.9225 0.701405 27.5423 1.07274 27.5423C1.32029 27.5423 1.73288 27.7113 2.18673 27.9648C3.6308 28.8944 4.91671 29.2746 6.40204 29.2746C10.2048 29.2746 12.8453 26.7817 12.8453 23.1831C12.8453 20.0493 11.1537 18.1901 8.29996 18.1901H5.65937C3.01879 18.1901 1.40281 17.1338 1.40281 15.3099C1.40281 13.3662 3.09443 12.0493 5.65937 12.0493C8.8432 12.0493 10.6586 13.5282 11.0299 16.4507H11.6488L11.4838 11.5423H10.8649V12.1761C10.8649 12.5563 10.7411 12.8099 10.5348 12.8099C10.4936 12.8099 10.411 12.7676 10.2873 12.7254C8.71943 11.8803 7.26848 11.4577 5.82441 11.4577C2.39303 11.4648 0.165036 13.5845 0.165036 16.838C0.165036 19.5915 1.89792 21.493 4.38034 21.493H7.2341C9.79216 21.493 11.1606 22.6338 11.1606 24.7535C11.1606 27.1197 9.42771 28.6479 6.65647 28.6479C3.47264 28.6479 1.12087 26.4085 0.543245 22.8521H0.00687652L0 22.8451Z" fill="#E6EDED"/>
<path d="M59.2343 4.35211C60.4102 4.35211 61.3592 3.38028 61.3592 2.17606C61.3592 0.971831 60.4102 0 59.2343 0C58.0585 0 57.1095 0.971831 57.1095 2.17606C57.1095 3.38028 58.0585 4.35211 59.2343 4.35211Z" fill="#A72142"/>
<path d="M86.9536 38.69C87.0017 37.2393 87.0568 36.7886 87.2355 36.3449C87.5931 35.3942 88.4458 34.8942 89.6286 34.8942C91.3821 34.8942 92.0216 35.8449 92.0216 38.4294C92.0216 38.6689 91.9735 38.697 91.6365 38.697H86.9536V38.69ZM94.2909 41.7182C93.5207 44.1196 92.1041 45.2252 89.8624 45.2252C88.7828 45.2252 87.9576 44.859 87.4418 44.1689C87.0293 43.5914 86.8986 42.8801 86.8986 41.1125C86.8986 40.852 86.8986 40.5562 86.9536 39.1336H94.1877C94.4215 39.1336 94.4972 39.1055 94.4972 38.9717C94.4696 38.4153 93.8576 37.0773 93.3419 36.4153C92.3861 35.2322 90.997 34.5139 89.663 34.5139C87.0155 34.5139 84.5675 37.2534 84.5675 40.2322C84.5675 43.2111 87.0155 45.6336 89.9449 45.6336C92.3104 45.6336 94.1396 44.1548 94.7103 41.7886L94.2977 41.7111L94.2909 41.7182ZM74.624 41.6125V45.4083H74.961V45.2252C74.961 44.7745 75.0641 44.5421 75.2979 44.5421C75.4492 44.5421 75.7105 44.6477 75.9924 44.8027C76.8933 45.3801 77.6909 45.6196 78.6193 45.6196C80.9848 45.6196 82.6352 44.0632 82.6352 41.8238C82.6352 39.8731 81.583 38.7111 79.802 38.7111H78.1517C76.5013 38.7111 75.4973 38.0491 75.4973 36.9224C75.4973 35.7111 76.5563 34.8942 78.1517 34.8942C80.1321 34.8942 81.2667 35.8167 81.5005 37.6336H81.8856L81.7825 34.5773H81.3974V34.9717C81.3974 35.2111 81.3217 35.366 81.1911 35.366C81.1636 35.366 81.1154 35.3379 81.0398 35.3167C80.0633 34.7886 79.1625 34.528 78.2617 34.528C76.1231 34.528 74.734 35.8449 74.734 37.8731C74.734 39.5843 75.8136 40.7745 77.3609 40.7745H79.135C80.7304 40.7745 81.583 41.4858 81.583 42.8027C81.583 44.2815 80.5034 45.2252 78.7774 45.2252C76.797 45.2252 75.3254 43.8308 74.9678 41.6125H74.6309H74.624ZM70.9244 44.8519V34.4153C70.4843 34.9717 70.2299 35.0984 69.7142 35.0984H66.8811V35.5491H68.8615V41.19C68.8615 43.2745 66.9842 45.1689 64.9212 45.1689C63.656 45.1689 63.1677 44.5632 63.1677 42.9576V34.4153C62.7826 34.9928 62.6039 35.0984 61.8818 35.0984H59.0762V35.5491H61.0566V42.1689C61.0566 43.4083 61.2079 43.9576 61.7512 44.5421C62.4182 45.2534 63.4497 45.6477 64.7149 45.6477C66.6954 45.6477 68.0088 44.7534 68.8615 42.8519V45.3027H72.8774V44.8519H70.9244ZM55.9336 41.9505C55.9336 44.3731 55.1084 45.2463 52.7911 45.2463C50.4737 45.2463 49.5453 44.2463 49.5453 41.9012V38.2393C49.5453 35.9717 50.6043 34.9153 52.8667 34.9153C53.8982 34.9153 54.744 35.2322 55.3147 35.7815C55.8305 36.3097 55.9336 36.7604 55.9336 38.2886V41.9505ZM52.8736 34.5421C50.068 34.5421 47.1592 37.3379 47.1592 40.0491C47.1592 42.9224 49.8617 45.6125 52.7429 45.6125C55.6242 45.6125 58.306 43.028 58.306 40.028C58.306 37.1829 55.6792 34.5421 52.8736 34.5421ZM36.6587 26.7886C36.3493 27.3942 35.9917 27.5562 35.0634 27.5562H32.5947V28.0069H34.5752V44.8519H32.5947V45.3027H38.6186V44.8519H36.6656V38.0773C37.3602 36.2815 38.9074 35.0421 40.4477 35.0421C41.5548 35.0421 42.3044 35.7815 42.3044 36.8872V44.8449H40.2689V45.2956H46.3959V44.8449H44.4155V38.521C44.4155 36.8308 44.3123 36.3097 43.8516 35.7534C43.2052 35.0421 42.1531 34.6196 40.9428 34.6196C38.9624 34.6196 37.6971 35.359 36.6725 37.1266V26.7956L36.6587 26.7886Z" fill="#E6EDED"/>
<path d="M71.0413 59.7324C71.5295 59.7324 71.9284 59.324 71.9284 58.824C71.9284 58.324 71.5295 57.9155 71.0413 57.9155C70.5531 57.9155 70.1542 58.324 70.1542 58.824C70.1542 59.324 70.5531 59.7324 71.0413 59.7324Z" fill="#A72142"/>
<path d="M102.529 60.9434H102.969V56.9223H102.529V60.9434ZM96.3675 59.8871L97.2684 57.8166L98.1692 59.8871H96.3675ZM98.6299 60.9434H99.1113L97.2959 56.8589H97.2477L95.4323 60.9434H95.9137L96.2025 60.2814H98.348L98.6368 60.9434H98.6299ZM91.0933 60.4997H90.1168V58.9857H91.0726C91.5884 58.9857 91.9391 59.3096 91.9391 59.6899C91.9391 60.1547 91.5402 60.5068 91.0933 60.5068M90.7701 57.3659C91.1414 57.3659 91.4577 57.6335 91.4577 57.9786C91.4577 58.3237 91.1964 58.5842 90.7701 58.5842H90.1168V57.3659H90.7701ZM91.3614 58.6828C91.5609 58.6828 91.8703 58.3659 91.8703 57.9293C91.8703 57.4011 91.3958 56.9293 90.7426 56.9293H89.6698V60.9504H91.1276C91.8772 60.9504 92.3723 60.3589 92.3723 59.7251C92.3723 59.0913 91.8703 58.6899 91.3683 58.6899M84.4918 61.0209C85.3307 61.0209 85.9496 60.3307 85.9496 59.3941V56.9364H85.5026V59.3941C85.5026 60.0702 85.0763 60.5631 84.4918 60.5631C83.9073 60.5631 83.4809 60.0702 83.4809 59.3941V56.9364H83.034V59.3941C83.034 60.3307 83.6529 61.0209 84.4918 61.0209ZM77.5121 60.5068H76.8589V57.3871H77.5052C78.4542 57.3871 79.0662 57.9997 79.0662 58.9504C79.0662 59.9011 78.4611 60.5068 77.5121 60.5068ZM77.5121 56.9364H76.4188V60.9645H77.5121C78.7362 60.9645 79.5132 60.1828 79.5132 58.9575C79.5132 57.7321 78.7293 56.9434 77.5121 56.9434M64.6874 56.9364V59.9434L61.9987 56.88H61.9712V60.9716H62.4182V57.9645L65.1138 61.0279H65.1344V56.9293H64.6874V56.9364ZM55.1634 60.9927H55.2322L56.2499 58.3237L57.2677 60.9927H57.3364L58.5536 56.9434H58.0722L57.2195 59.88L56.2637 57.2673H56.2293L55.2666 59.88L54.4139 56.9434H53.9394L55.1566 60.9927H55.1634ZM48.9746 60.5631C48.115 60.5631 47.4067 59.8448 47.4067 58.9575C47.4067 58.0702 48.1081 57.3448 48.9746 57.3448C49.841 57.3448 50.5493 58.0702 50.5493 58.9575C50.5493 59.8448 49.841 60.5631 48.9746 60.5631ZM48.9746 61.0209C50.0886 61.0209 50.9963 60.0913 50.9963 58.9575C50.9963 57.8237 50.0886 56.8871 48.9746 56.8871C47.8606 56.8871 46.9598 57.8166 46.9598 58.9575C46.9598 60.0983 47.8675 61.0209 48.9746 61.0209ZM43.8791 56.9434H41.156V57.3941H42.2975V60.9645H42.7444V57.3941H43.8859V56.9434H43.8791ZM37.2295 56.9293V59.9364L34.5408 56.873H34.5133V60.9645H34.9602V57.9575L37.6558 61.0209H37.6765V56.9223H37.2295V56.9293ZM27.7055 60.9856H27.7743L28.792 58.3166L29.8097 60.9856H29.8785L31.0956 56.9364H30.6211L29.7685 59.873L28.8126 57.2603H28.7782L27.8155 59.873L26.9628 56.9364H26.4884L27.7055 60.9856ZM21.5166 60.5561C20.6571 60.5561 19.9488 59.8378 19.9488 58.9504C19.9488 58.0631 20.6502 57.3378 21.5166 57.3378C22.3831 57.3378 23.0914 58.0631 23.0914 58.9504C23.0914 59.8378 22.3831 60.5561 21.5166 60.5561ZM21.5166 61.0138C22.6306 61.0138 23.5383 60.0842 23.5383 58.9504C23.5383 57.8166 22.6306 56.88 21.5166 56.88C20.4026 56.88 19.5018 57.8096 19.5018 58.9504C19.5018 60.0913 20.4095 61.0138 21.5166 61.0138ZM14.145 60.5068H13.4917V57.3871H14.1381C15.0871 57.3871 15.6991 57.9997 15.6991 58.9504C15.6991 59.9011 15.094 60.5068 14.145 60.5068ZM14.145 56.9364H13.0516V60.9645H14.145C15.369 60.9645 16.1461 60.1828 16.1461 58.9575C16.1461 57.7321 15.369 56.9434 14.145 56.9434" fill="#E6EDED"/>
</svg>
